<svg id="visual" viewBox="0 0 1920 1080" width="1920" height="1080" xmlns="http://www.w3.org/2000/svg" xmlns:xlink="http://www.w3.org/1999/xlink" version="1.1"><rect x="0" y="0" width="1920" height="1080" fill="#001220"></rect><defs><linearGradient id="grad1_0" x1="43.8%" y1="0%" x2="100%" y2="100%"><stop offset="14.444444444444446%" stop-color="#fbae3c" stop-opacity="1"></stop><stop offset="85.55555555555554%" stop-color="#fbae3c" stop-opacity="1"></stop></linearGradient></defs><defs><linearGradient id="grad1_1" x1="43.8%" y1="0%" x2="100%" y2="100%"><stop offset="14.444444444444446%" stop-color="#fbae3c" stop-opacity="1"></stop><stop offset="85.55555555555554%" stop-color="#f48350" stop-opacity="1"></stop></linearGradient></defs><defs><linearGradient id="grad1_2" x1="43.8%" y1="0%" x2="100%" y2="100%"><stop offset="14.444444444444446%" stop-color="#d96162" stop-opacity="1"></stop><stop offset="85.55555555555554%" stop-color="#f48350" stop-opacity="1"></stop></linearGradient></defs><defs><linearGradient id="grad1_3" x1="43.8%" y1="0%" x2="100%" y2="100%"><stop offset="14.444444444444446%" stop-color="#d96162" stop-opacity="1"></stop><stop offset="85.55555555555554%" stop-color="#af4b6d" stop-opacity="1"></stop></linearGradient></defs><defs><linearGradient id="grad1_4" x1="43.8%" y1="0%" x2="100%" y2="100%"><stop offset="14.444444444444446%" stop-color="#7c3e6b" stop-opacity="1"></stop><stop offset="85.55555555555554%" stop-color="#af4b6d" stop-opacity="1"></stop></linearGradient></defs><defs><linearGradient id="grad1_5" x1="43.8%" y1="0%" x2="100%" y2="100%"><stop offset="14.444444444444446%" stop-color="#7c3e6b" stop-opacity="1"></stop><stop offset="85.55555555555554%" stop-color="#49335c" stop-opacity="1"></stop></linearGradient></defs><defs><linearGradient id="grad1_6" x1="43.8%" y1="0%" x2="100%" y2="100%"><stop offset="14.444444444444446%" stop-color="#1d2540" stop-opacity="1"></stop><stop offset="85.55555555555554%" stop-color="#49335c" stop-opacity="1"></stop></linearGradient></defs><defs><linearGradient id="grad1_7" x1="43.8%" y1="0%" x2="100%" y2="100%"><stop offset="14.444444444444446%" stop-color="#1d2540" stop-opacity="1"></stop><stop offset="85.55555555555554%" stop-color="#001220" stop-opacity="1"></stop></linearGradient></defs><defs><linearGradient id="grad2_0" x1="0%" y1="0%" x2="56.3%" y2="100%"><stop offset="14.444444444444446%" stop-color="#fbae3c" stop-opacity="1"></stop><stop offset="85.55555555555554%" stop-color="#fbae3c" stop-opacity="1"></stop></linearGradient></defs><defs><linearGradient id="grad2_1" x1="0%" y1="0%" x2="56.3%" y2="100%"><stop offset="14.444444444444446%" stop-color="#f48350" stop-opacity="1"></stop><stop offset="85.55555555555554%" stop-color="#fbae3c" stop-opacity="1"></stop></linearGradient></defs><defs><linearGradient id="grad2_2" x1="0%" y1="0%" x2="56.3%" y2="100%"><stop offset="14.444444444444446%" stop-color="#f48350" stop-opacity="1"></stop><stop offset="85.55555555555554%" stop-color="#d96162" stop-opacity="1"></stop></linearGradient></defs><defs><linearGradient id="grad2_3" x1="0%" y1="0%" x2="56.3%" y2="100%"><stop offset="14.444444444444446%" stop-color="#af4b6d" stop-opacity="1"></stop><stop offset="85.55555555555554%" stop-color="#d96162" stop-opacity="1"></stop></linearGradient></defs><defs><linearGradient id="grad2_4" x1="0%" y1="0%" x2="56.3%" y2="100%"><stop offset="14.444444444444446%" stop-color="#af4b6d" stop-opacity="1"></stop><stop offset="85.55555555555554%" stop-color="#7c3e6b" stop-opacity="1"></stop></linearGradient></defs><defs><linearGradient id="grad2_5" x1="0%" y1="0%" x2="56.3%" y2="100%"><stop offset="14.444444444444446%" stop-color="#49335c" stop-opacity="1"></stop><stop offset="85.55555555555554%" stop-color="#7c3e6b" stop-opacity="1"></stop></linearGradient></defs><defs><linearGradient id="grad2_6" x1="0%" y1="0%" x2="56.3%" y2="100%"><stop offset="14.444444444444446%" stop-color="#49335c" stop-opacity="1"></stop><stop offset="85.55555555555554%" stop-color="#1d2540" stop-opacity="1"></stop></linearGradient></defs><defs><linearGradient id="grad2_7" x1="0%" y1="0%" x2="56.3%" y2="100%"><stop offset="14.444444444444446%" stop-color="#001220" stop-opacity="1"></stop><stop offset="85.55555555555554%" stop-color="#1d2540" stop-opacity="1"></stop></linearGradient></defs><g transform="translate(1920, 0)"><path d="M0 810C-133 775.2 -266 740.4 -391 677.2C-516 614.1 -633 522.6 -701.5 405C-770 287.4 -790 143.7 -810 0L0 0Z" fill="#0c1c30"></path><path d="M0 708.8C-116.4 678.3 -232.8 647.8 -342.1 592.6C-451.5 537.3 -553.9 457.3 -613.8 354.4C-673.7 251.5 -691.2 125.7 -708.7 0L0 0Z" fill="#312c4f"></path><path d="M0 607.5C-99.8 581.4 -199.5 555.3 -293.2 507.9C-387 460.6 -474.7 391.9 -526.1 303.8C-577.5 215.6 -592.5 107.8 -607.5 0L0 0Z" fill="#623965"></path><path d="M0 506.3C-83.1 484.5 -166.3 462.7 -244.4 423.3C-322.5 383.8 -395.6 326.6 -438.4 253.1C-481.2 179.6 -493.7 89.8 -506.2 0L0 0Z" fill="#96446e"></path><path d="M0 405C-66.5 387.6 -133 370.2 -195.5 338.6C-258 307 -316.5 261.3 -350.7 202.5C-385 143.7 -395 71.9 -405 0L0 0Z" fill="#c55469"></path><path d="M0 303.8C-49.9 290.7 -99.8 277.6 -146.6 254C-193.5 230.3 -237.4 196 -263.1 151.9C-288.7 107.8 -296.2 53.9 -303.7 0L0 0Z" fill="#e9705a"></path><path d="M0 202.5C-33.3 193.8 -66.5 185.1 -97.7 169.3C-129 153.5 -158.2 130.6 -175.4 101.3C-192.5 71.9 -197.5 35.9 -202.5 0L0 0Z" fill="#fa9845"></path><path d="M0 101.3C-16.6 96.9 -33.3 92.5 -48.9 84.7C-64.5 76.8 -79.1 65.3 -87.7 50.6C-96.2 35.9 -98.7 18 -101.2 0L0 0Z" fill="#fbae3c"></path></g><g transform="translate(0, 1080)"><path d="M0 -810C75.7 -675.9 151.3 -541.8 283.5 -491C415.7 -440.3 604.3 -472.9 701.5 -405C798.6 -337.1 804.3 -168.5 810 0L0 0Z" fill="#0c1c30"></path><path d="M0 -708.7C66.2 -591.4 132.4 -474.1 248.1 -429.7C363.7 -385.3 528.8 -413.8 613.8 -354.4C698.8 -294.9 703.8 -147.5 708.8 0L0 0Z" fill="#312c4f"></path><path d="M0 -607.5C56.8 -506.9 113.5 -406.3 212.6 -368.3C311.7 -330.2 453.2 -354.7 526.1 -303.8C599 -252.8 603.2 -126.4 607.5 0L0 0Z" fill="#623965"></path><path d="M0 -506.2C47.3 -422.4 94.6 -338.6 177.2 -306.9C259.8 -275.2 377.7 -295.6 438.4 -253.1C499.2 -210.7 502.7 -105.3 506.3 0L0 0Z" fill="#96446e"></path><path d="M0 -405C37.8 -337.9 75.7 -270.9 141.7 -245.5C207.8 -220.2 302.2 -236.5 350.7 -202.5C399.3 -168.5 402.2 -84.3 405 0L0 0Z" fill="#c55469"></path><path d="M0 -303.7C28.4 -253.5 56.8 -203.2 106.3 -184.1C155.9 -165.1 226.6 -177.4 263.1 -151.9C299.5 -126.4 301.6 -63.2 303.8 0L0 0Z" fill="#e9705a"></path><path d="M0 -202.5C18.9 -169 37.8 -135.4 70.9 -122.8C103.9 -110.1 151.1 -118.2 175.4 -101.3C199.7 -84.3 201.1 -42.1 202.5 0L0 0Z" fill="#fa9845"></path><path d="M0 -101.2C9.5 -84.5 18.9 -67.7 35.4 -61.4C52 -55 75.5 -59.1 87.7 -50.6C99.8 -42.1 100.5 -21.1 101.3 0L0 0Z" fill="#fbae3c"></path></g></svg>