<svg id="visual" viewBox="0 0 2309 80" width="2309" height="80" xmlns="http://www.w3.org/2000/svg" xmlns:xlink="http://www.w3.org/1999/xlink" version="1.1"><rect width="2309" height="80" fill="#001220"></rect><g><g transform="translate(182 64)"><path d="M0 -7.7L6.6 -3.8L6.6 3.8L0 7.7L-6.6 3.8L-6.6 -3.8Z" fill="#FBAE3C"></path></g><g transform="translate(1960 44)"><path d="M0 -4L3.5 -2L3.5 2L0 4L-3.5 2L-3.5 -2Z" fill="#FBAE3C"></path></g><g transform="translate(706 54)"><path d="M0 -2L1.7 -1L1.7 1L0 2L-1.7 1L-1.7 -1Z" fill="#FBAE3C"></path></g><g transform="translate(52 24)"><path d="M0 -4L3.5 -2L3.5 2L0 4L-3.5 2L-3.5 -2Z" fill="#FBAE3C"></path></g><g transform="translate(2121 29)"><path d="M0 -5L4.3 -2.5L4.3 2.5L0 5L-4.3 2.5L-4.3 -2.5Z" fill="#FBAE3C"></path></g><g transform="translate(1838 44)"><path d="M0 -3L2.6 -1.5L2.6 1.5L0 3L-2.6 1.5L-2.6 -1.5Z" fill="#FBAE3C"></path></g><g transform="translate(1948 24)"><path d="M0 -4L3.5 -2L3.5 2L0 4L-3.5 2L-3.5 -2Z" fill="#FBAE3C"></path></g><g transform="translate(817 41)"><path d="M0 -1L0.9 -0.5L0.9 0.5L0 1L-0.9 0.5L-0.9 -0.5Z" fill="#FBAE3C"></path></g><g transform="translate(2248 28)"><path d="M0 -1L0.9 -0.5L0.9 0.5L0 1L-0.9 0.5L-0.9 -0.5Z" fill="#FBAE3C"></path></g><g transform="translate(611 20)"><path d="M0 -6L5.2 -3L5.2 3L0 6L-5.2 3L-5.2 -3Z" fill="#FBAE3C"></path></g><g transform="translate(2060 77)"><path d="M0 -4L3.5 -2L3.5 2L0 4L-3.5 2L-3.5 -2Z" fill="#FBAE3C"></path></g><g transform="translate(1701 32)"><path d="M0 -6L5.2 -3L5.2 3L0 6L-5.2 3L-5.2 -3Z" fill="#FBAE3C"></path></g><g transform="translate(1285 45)"><path d="M0 -3L2.6 -1.5L2.6 1.5L0 3L-2.6 1.5L-2.6 -1.5Z" fill="#FBAE3C"></path></g><g transform="translate(807 56)"><path d="M0 -2L1.7 -1L1.7 1L0 2L-1.7 1L-1.7 -1Z" fill="#FBAE3C"></path></g><g transform="translate(1529 67)"><path d="M0 -4L3.5 -2L3.5 2L0 4L-3.5 2L-3.5 -2Z" fill="#FBAE3C"></path></g><g transform="translate(1605 7)"><path d="M0 -2L1.7 -1L1.7 1L0 2L-1.7 1L-1.7 -1Z" fill="#FBAE3C"></path></g><g transform="translate(1490 43)"><path d="M0 -5L4.3 -2.5L4.3 2.5L0 5L-4.3 2.5L-4.3 -2.5Z" fill="#FBAE3C"></path></g><g transform="translate(2021 7)"><path d="M0 -5L4.3 -2.5L4.3 2.5L0 5L-4.3 2.5L-4.3 -2.5Z" fill="#FBAE3C"></path></g><g transform="translate(1550 13)"><path d="M0 -5L4.3 -2.5L4.3 2.5L0 5L-4.3 2.5L-4.3 -2.5Z" fill="#FBAE3C"></path></g><g transform="translate(728 49)"><path d="M0 -2L1.7 -1L1.7 1L0 2L-1.7 1L-1.7 -1Z" fill="#FBAE3C"></path></g><g transform="translate(1093 48)"><path d="M0 -4L3.5 -2L3.5 2L0 4L-3.5 2L-3.5 -2Z" fill="#FBAE3C"></path></g><g transform="translate(1681 35)"><path d="M0 -6L5.2 -3L5.2 3L0 6L-5.2 3L-5.2 -3Z" fill="#FBAE3C"></path></g><g transform="translate(660 16)"><path d="M0 -5L4.3 -2.5L4.3 2.5L0 5L-4.3 2.5L-4.3 -2.5Z" fill="#FBAE3C"></path></g><g transform="translate(1314 46)"><path d="M0 -2L1.7 -1L1.7 1L0 2L-1.7 1L-1.7 -1Z" fill="#FBAE3C"></path></g><g transform="translate(644 38)"><path d="M0 -5L4.3 -2.5L4.3 2.5L0 5L-4.3 2.5L-4.3 -2.5Z" fill="#FBAE3C"></path></g><g transform="translate(477 62)"><path d="M0 -2L1.7 -1L1.7 1L0 2L-1.7 1L-1.7 -1Z" fill="#FBAE3C"></path></g><g transform="translate(6 37)"><path d="M0 -3L2.6 -1.5L2.6 1.5L0 3L-2.6 1.5L-2.6 -1.5Z" fill="#FBAE3C"></path></g><g transform="translate(1812 28)"><path d="M0 -5L4.3 -2.5L4.3 2.5L0 5L-4.3 2.5L-4.3 -2.5Z" fill="#FBAE3C"></path></g><g transform="translate(675 76)"><path d="M0 -3L2.6 -1.5L2.6 1.5L0 3L-2.6 1.5L-2.6 -1.5Z" fill="#FBAE3C"></path></g><g transform="translate(718 19)"><path d="M0 -4L3.5 -2L3.5 2L0 4L-3.5 2L-3.5 -2Z" fill="#FBAE3C"></path></g><g transform="translate(644 8)"><path d="M0 -3L2.6 -1.5L2.6 1.5L0 3L-2.6 1.5L-2.6 -1.5Z" fill="#FBAE3C"></path></g><g transform="translate(170 14)"><path d="M0 -6L5.2 -3L5.2 3L0 6L-5.2 3L-5.2 -3Z" fill="#FBAE3C"></path></g><g transform="translate(1761 10)"><path d="M0 -3L2.6 -1.5L2.6 1.5L0 3L-2.6 1.5L-2.6 -1.5Z" fill="#FBAE3C"></path></g><g transform="translate(1463 45)"><path d="M0 -5L4.3 -2.5L4.3 2.5L0 5L-4.3 2.5L-4.3 -2.5Z" fill="#FBAE3C"></path></g><g transform="translate(796 5)"><path d="M0 -1L0.9 -0.5L0.9 0.5L0 1L-0.9 0.5L-0.9 -0.5Z" fill="#FBAE3C"></path></g><g transform="translate(290 19)"><path d="M0 -1L0.9 -0.5L0.9 0.5L0 1L-0.9 0.5L-0.9 -0.5Z" fill="#FBAE3C"></path></g><g transform="translate(587 67)"><path d="M0 -2L1.7 -1L1.7 1L0 2L-1.7 1L-1.7 -1Z" fill="#FBAE3C"></path></g><g transform="translate(680 24)"><path d="M0 -6L5.2 -3L5.2 3L0 6L-5.2 3L-5.2 -3Z" fill="#FBAE3C"></path></g><g transform="translate(867 64)"><path d="M0 -5L4.3 -2.5L4.3 2.5L0 5L-4.3 2.5L-4.3 -2.5Z" fill="#FBAE3C"></path></g><g transform="translate(1958 9)"><path d="M0 -3L2.6 -1.5L2.6 1.5L0 3L-2.6 1.5L-2.6 -1.5Z" fill="#FBAE3C"></path></g><g transform="translate(1011 36)"><path d="M0 -2L1.7 -1L1.7 1L0 2L-1.7 1L-1.7 -1Z" fill="#FBAE3C"></path></g><g transform="translate(1740 12)"><path d="M0 -1L0.9 -0.5L0.9 0.5L0 1L-0.9 0.5L-0.9 -0.5Z" fill="#FBAE3C"></path></g><g transform="translate(1707 75)"><path d="M0 -6L5.2 -3L5.2 3L0 6L-5.2 3L-5.2 -3Z" fill="#FBAE3C"></path></g><g transform="translate(907 32)"><path d="M0 -4L3.5 -2L3.5 2L0 4L-3.5 2L-3.5 -2Z" fill="#FBAE3C"></path></g><g transform="translate(975 33)"><path d="M0 -6L5.2 -3L5.2 3L0 6L-5.2 3L-5.2 -3Z" fill="#FBAE3C"></path></g><g transform="translate(1184 38)"><path d="M0 -6L5.2 -3L5.2 3L0 6L-5.2 3L-5.2 -3Z" fill="#FBAE3C"></path></g><g transform="translate(1346 61)"><path d="M0 -1L0.9 -0.5L0.9 0.5L0 1L-0.9 0.5L-0.9 -0.5Z" fill="#FBAE3C"></path></g><g transform="translate(1754 38)"><path d="M0 -2L1.7 -1L1.7 1L0 2L-1.7 1L-1.7 -1Z" fill="#FBAE3C"></path></g><g transform="translate(1086 17)"><path d="M0 -2L1.7 -1L1.7 1L0 2L-1.7 1L-1.7 -1Z" fill="#FBAE3C"></path></g><g transform="translate(1108 68)"><path d="M0 -1L0.9 -0.5L0.9 0.5L0 1L-0.9 0.5L-0.9 -0.5Z" fill="#FBAE3C"></path></g><g transform="translate(1733 70)"><path d="M0 -4L3.5 -2L3.5 2L0 4L-3.5 2L-3.5 -2Z" fill="#FBAE3C"></path></g><g transform="translate(100 16)"><path d="M0 -1L0.9 -0.5L0.9 0.5L0 1L-0.9 0.5L-0.9 -0.5Z" fill="#FBAE3C"></path></g><g transform="translate(1429 2)"><path d="M0 -6L5.2 -3L5.2 3L0 6L-5.2 3L-5.2 -3Z" fill="#FBAE3C"></path></g><g transform="translate(1117 42)"><path d="M0 -3L2.6 -1.5L2.6 1.5L0 3L-2.6 1.5L-2.6 -1.5Z" fill="#FBAE3C"></path></g><g transform="translate(1664 16)"><path d="M0 -2L1.7 -1L1.7 1L0 2L-1.7 1L-1.7 -1Z" fill="#FBAE3C"></path></g><g transform="translate(1421 74)"><path d="M0 -6L5.2 -3L5.2 3L0 6L-5.2 3L-5.2 -3Z" fill="#FBAE3C"></path></g><g transform="translate(1499 56)"><path d="M0 -3L2.6 -1.5L2.6 1.5L0 3L-2.6 1.5L-2.6 -1.5Z" fill="#FBAE3C"></path></g><g transform="translate(1859 73)"><path d="M0 -5L4.3 -2.5L4.3 2.5L0 5L-4.3 2.5L-4.3 -2.5Z" fill="#FBAE3C"></path></g><g transform="translate(349 12)"><path d="M0 -5L4.3 -2.5L4.3 2.5L0 5L-4.3 2.5L-4.3 -2.5Z" fill="#FBAE3C"></path></g><g transform="translate(1411 26)"><path d="M0 -3L2.6 -1.5L2.6 1.5L0 3L-2.6 1.5L-2.6 -1.5Z" fill="#FBAE3C"></path></g><g transform="translate(1295 76)"><path d="M0 -5L4.3 -2.5L4.3 2.5L0 5L-4.3 2.5L-4.3 -2.5Z" fill="#FBAE3C"></path></g><g transform="translate(256 12)"><path d="M0 -3L2.6 -1.5L2.6 1.5L0 3L-2.6 1.5L-2.6 -1.5Z" fill="#FBAE3C"></path></g><g transform="translate(1530 13)"><path d="M0 -6L5.2 -3L5.2 3L0 6L-5.2 3L-5.2 -3Z" fill="#FBAE3C"></path></g><g transform="translate(1549 42)"><path d="M0 -4L3.5 -2L3.5 2L0 4L-3.5 2L-3.5 -2Z" fill="#FBAE3C"></path></g><g transform="translate(1003 17)"><path d="M0 -4L3.5 -2L3.5 2L0 4L-3.5 2L-3.5 -2Z" fill="#FBAE3C"></path></g><g transform="translate(1152 66)"><path d="M0 -2L1.7 -1L1.7 1L0 2L-1.7 1L-1.7 -1Z" fill="#FBAE3C"></path></g><g transform="translate(764 9)"><path d="M0 -3L2.6 -1.5L2.6 1.5L0 3L-2.6 1.5L-2.6 -1.5Z" fill="#FBAE3C"></path></g><g transform="translate(165 62)"><path d="M0 -5L4.3 -2.5L4.3 2.5L0 5L-4.3 2.5L-4.3 -2.5Z" fill="#FBAE3C"></path></g><g transform="translate(2192 68)"><path d="M0 -4L3.5 -2L3.5 2L0 4L-3.5 2L-3.5 -2Z" fill="#FBAE3C"></path></g><g transform="translate(1156 24)"><path d="M0 -3L2.6 -1.5L2.6 1.5L0 3L-2.6 1.5L-2.6 -1.5Z" fill="#FBAE3C"></path></g><g transform="translate(2087 54)"><path d="M0 -1L0.9 -0.5L0.9 0.5L0 1L-0.9 0.5L-0.9 -0.5Z" fill="#FBAE3C"></path></g><g transform="translate(515 18)"><path d="M0 -1L0.9 -0.5L0.9 0.5L0 1L-0.9 0.5L-0.9 -0.5Z" fill="#FBAE3C"></path></g><g transform="translate(1586 46)"><path d="M0 -6L5.2 -3L5.2 3L0 6L-5.2 3L-5.2 -3Z" fill="#FBAE3C"></path></g><g transform="translate(917 60)"><path d="M0 -2L1.7 -1L1.7 1L0 2L-1.7 1L-1.7 -1Z" fill="#FBAE3C"></path></g><g transform="translate(1394 79)"><path d="M0 -3L2.6 -1.5L2.6 1.5L0 3L-2.6 1.5L-2.6 -1.5Z" fill="#FBAE3C"></path></g><g transform="translate(1820 75)"><path d="M0 -1L0.9 -0.5L0.9 0.5L0 1L-0.9 0.5L-0.9 -0.5Z" fill="#FBAE3C"></path></g><g transform="translate(178 47)"><path d="M0 -1L0.9 -0.5L0.9 0.5L0 1L-0.9 0.5L-0.9 -0.5Z" fill="#FBAE3C"></path></g><g transform="translate(1337 33)"><path d="M0 -3L2.6 -1.5L2.6 1.5L0 3L-2.6 1.5L-2.6 -1.5Z" fill="#FBAE3C"></path></g><g transform="translate(2044 19)"><path d="M0 -3L2.6 -1.5L2.6 1.5L0 3L-2.6 1.5L-2.6 -1.5Z" fill="#FBAE3C"></path></g><g transform="translate(484 27)"><path d="M0 -5L4.3 -2.5L4.3 2.5L0 5L-4.3 2.5L-4.3 -2.5Z" fill="#FBAE3C"></path></g><g transform="translate(1914 2)"><path d="M0 -4L3.5 -2L3.5 2L0 4L-3.5 2L-3.5 -2Z" fill="#FBAE3C"></path></g><g transform="translate(1864 7)"><path d="M0 -3L2.6 -1.5L2.6 1.5L0 3L-2.6 1.5L-2.6 -1.5Z" fill="#FBAE3C"></path></g><g transform="translate(1075 63)"><path d="M0 -4L3.5 -2L3.5 2L0 4L-3.5 2L-3.5 -2Z" fill="#FBAE3C"></path></g><g transform="translate(2120 77)"><path d="M0 -4L3.5 -2L3.5 2L0 4L-3.5 2L-3.5 -2Z" fill="#FBAE3C"></path></g><g transform="translate(422 51)"><path d="M0 -1L0.9 -0.5L0.9 0.5L0 1L-0.9 0.5L-0.9 -0.5Z" fill="#FBAE3C"></path></g><g transform="translate(1041 62)"><path d="M0 -4L3.5 -2L3.5 2L0 4L-3.5 2L-3.5 -2Z" fill="#FBAE3C"></path></g><g transform="translate(383 26)"><path d="M0 -1L0.9 -0.5L0.9 0.5L0 1L-0.9 0.5L-0.9 -0.5Z" fill="#FBAE3C"></path></g><g transform="translate(238 29)"><path d="M0 -4L3.5 -2L3.5 2L0 4L-3.5 2L-3.5 -2Z" fill="#FBAE3C"></path></g><g transform="translate(1640 2)"><path d="M0 -5L4.3 -2.5L4.3 2.5L0 5L-4.3 2.5L-4.3 -2.5Z" fill="#FBAE3C"></path></g><g transform="translate(1977 14)"><path d="M0 -5L4.3 -2.5L4.3 2.5L0 5L-4.3 2.5L-4.3 -2.5Z" fill="#FBAE3C"></path></g><g transform="translate(1057 10)"><path d="M0 -3L2.6 -1.5L2.6 1.5L0 3L-2.6 1.5L-2.6 -1.5Z" fill="#FBAE3C"></path></g><g transform="translate(1898 40)"><path d="M0 -1L0.9 -0.5L0.9 0.5L0 1L-0.9 0.5L-0.9 -0.5Z" fill="#FBAE3C"></path></g><g transform="translate(308 8)"><path d="M0 -4L3.5 -2L3.5 2L0 4L-3.5 2L-3.5 -2Z" fill="#FBAE3C"></path></g><g transform="translate(2174 36)"><path d="M0 -4L3.5 -2L3.5 2L0 4L-3.5 2L-3.5 -2Z" fill="#FBAE3C"></path></g><g transform="translate(350 77)"><path d="M0 -1L0.9 -0.5L0.9 0.5L0 1L-0.9 0.5L-0.9 -0.5Z" fill="#FBAE3C"></path></g><g transform="translate(721 2)"><path d="M0 -4L3.5 -2L3.5 2L0 4L-3.5 2L-3.5 -2Z" fill="#FBAE3C"></path></g><g transform="translate(1203 66)"><path d="M0 -4L3.5 -2L3.5 2L0 4L-3.5 2L-3.5 -2Z" fill="#FBAE3C"></path></g><g transform="translate(1841 64)"><path d="M0 -3L2.6 -1.5L2.6 1.5L0 3L-2.6 1.5L-2.6 -1.5Z" fill="#FBAE3C"></path></g><g transform="translate(1222 29)"><path d="M0 -5L4.3 -2.5L4.3 2.5L0 5L-4.3 2.5L-4.3 -2.5Z" fill="#FBAE3C"></path></g><g transform="translate(1566 50)"><path d="M0 -2L1.7 -1L1.7 1L0 2L-1.7 1L-1.7 -1Z" fill="#FBAE3C"></path></g><g transform="translate(1386 21)"><path d="M0 -4L3.5 -2L3.5 2L0 4L-3.5 2L-3.5 -2Z" fill="#FBAE3C"></path></g><g transform="translate(1357 43)"><path d="M0 -4L3.5 -2L3.5 2L0 4L-3.5 2L-3.5 -2Z" fill="#FBAE3C"></path></g><g transform="translate(2304 55)"><path d="M0 -1L0.9 -0.5L0.9 0.5L0 1L-0.9 0.5L-0.9 -0.5Z" fill="#FBAE3C"></path></g><g transform="translate(2153 49)"><path d="M0 -3L2.6 -1.5L2.6 1.5L0 3L-2.6 1.5L-2.6 -1.5Z" fill="#FBAE3C"></path></g><g transform="translate(2066 52)"><path d="M0 -1L0.9 -0.5L0.9 0.5L0 1L-0.9 0.5L-0.9 -0.5Z" fill="#FBAE3C"></path></g><g transform="translate(16 23)"><path d="M0 -4L3.5 -2L3.5 2L0 4L-3.5 2L-3.5 -2Z" fill="#FBAE3C"></path></g><g transform="translate(811 18)"><path d="M0 -2L1.7 -1L1.7 1L0 2L-1.7 1L-1.7 -1Z" fill="#FBAE3C"></path></g><g transform="translate(258 59)"><path d="M0 -6L5.2 -3L5.2 3L0 6L-5.2 3L-5.2 -3Z" fill="#FBAE3C"></path></g><g transform="translate(626 9)"><path d="M0 -6L5.2 -3L5.2 3L0 6L-5.2 3L-5.2 -3Z" fill="#FBAE3C"></path></g><g transform="translate(699 8)"><path d="M0 -1L0.9 -0.5L0.9 0.5L0 1L-0.9 0.5L-0.9 -0.5Z" fill="#FBAE3C"></path></g><g transform="translate(1790 39)"><path d="M0 -1L0.9 -0.5L0.9 0.5L0 1L-0.9 0.5L-0.9 -0.5Z" fill="#FBAE3C"></path></g><g transform="translate(1925 54)"><path d="M0 -1L0.9 -0.5L0.9 0.5L0 1L-0.9 0.5L-0.9 -0.5Z" fill="#FBAE3C"></path></g><g transform="translate(619 60)"><path d="M0 -3L2.6 -1.5L2.6 1.5L0 3L-2.6 1.5L-2.6 -1.5Z" fill="#FBAE3C"></path></g><g transform="translate(1754 64)"><path d="M0 -2L1.7 -1L1.7 1L0 2L-1.7 1L-1.7 -1Z" fill="#FBAE3C"></path></g><g transform="translate(717 75)"><path d="M0 -6L5.2 -3L5.2 3L0 6L-5.2 3L-5.2 -3Z" fill="#FBAE3C"></path></g><g transform="translate(1254 13)"><path d="M0 -6L5.2 -3L5.2 3L0 6L-5.2 3L-5.2 -3Z" fill="#FBAE3C"></path></g><g transform="translate(1466 16)"><path d="M0 -4L3.5 -2L3.5 2L0 4L-3.5 2L-3.5 -2Z" fill="#FBAE3C"></path></g><g transform="translate(381 46)"><path d="M0 -6L5.2 -3L5.2 3L0 6L-5.2 3L-5.2 -3Z" fill="#FBAE3C"></path></g><g transform="translate(2120 60)"><path d="M0 -5L4.3 -2.5L4.3 2.5L0 5L-4.3 2.5L-4.3 -2.5Z" fill="#FBAE3C"></path></g><g transform="translate(532 36)"><path d="M0 -3L2.6 -1.5L2.6 1.5L0 3L-2.6 1.5L-2.6 -1.5Z" fill="#FBAE3C"></path></g><g transform="translate(837 10)"><path d="M0 -2L1.7 -1L1.7 1L0 2L-1.7 1L-1.7 -1Z" fill="#FBAE3C"></path></g><g transform="translate(200 1)"><path d="M0 -4L3.5 -2L3.5 2L0 4L-3.5 2L-3.5 -2Z" fill="#FBAE3C"></path></g><g transform="translate(309 78)"><path d="M0 -6L5.2 -3L5.2 3L0 6L-5.2 3L-5.2 -3Z" fill="#FBAE3C"></path></g><g transform="translate(1630 45)"><path d="M0 -3L2.6 -1.5L2.6 1.5L0 3L-2.6 1.5L-2.6 -1.5Z" fill="#FBAE3C"></path></g><g transform="translate(2148 15)"><path d="M0 -6L5.2 -3L5.2 3L0 6L-5.2 3L-5.2 -3Z" fill="#FBAE3C"></path></g><g transform="translate(1353 13)"><path d="M0 -4L3.5 -2L3.5 2L0 4L-3.5 2L-3.5 -2Z" fill="#FBAE3C"></path></g><g transform="translate(2089 25)"><path d="M0 -1L0.9 -0.5L0.9 0.5L0 1L-0.9 0.5L-0.9 -0.5Z" fill="#FBAE3C"></path></g><g transform="translate(330 46)"><path d="M0 -3L2.6 -1.5L2.6 1.5L0 3L-2.6 1.5L-2.6 -1.5Z" fill="#FBAE3C"></path></g><g transform="translate(1174 11)"><path d="M0 -4L3.5 -2L3.5 2L0 4L-3.5 2L-3.5 -2Z" fill="#FBAE3C"></path></g><g transform="translate(783 55)"><path d="M0 -2L1.7 -1L1.7 1L0 2L-1.7 1L-1.7 -1Z" fill="#FBAE3C"></path></g><g transform="translate(1053 71)"><path d="M0 -3L2.6 -1.5L2.6 1.5L0 3L-2.6 1.5L-2.6 -1.5Z" fill="#FBAE3C"></path></g><g transform="translate(557 33)"><path d="M0 -5L4.3 -2.5L4.3 2.5L0 5L-4.3 2.5L-4.3 -2.5Z" fill="#FBAE3C"></path></g><g transform="translate(2141 37)"><path d="M0 -1L0.9 -0.5L0.9 0.5L0 1L-0.9 0.5L-0.9 -0.5Z" fill="#FBAE3C"></path></g><g transform="translate(963 60)"><path d="M0 -1L0.9 -0.5L0.9 0.5L0 1L-0.9 0.5L-0.9 -0.5Z" fill="#FBAE3C"></path></g><g transform="translate(2238 53)"><path d="M0 -4L3.5 -2L3.5 2L0 4L-3.5 2L-3.5 -2Z" fill="#FBAE3C"></path></g><g transform="translate(217 13)"><path d="M0 -5L4.3 -2.5L4.3 2.5L0 5L-4.3 2.5L-4.3 -2.5Z" fill="#FBAE3C"></path></g><g transform="translate(472 9)"><path d="M0 -5L4.3 -2.5L4.3 2.5L0 5L-4.3 2.5L-4.3 -2.5Z" fill="#FBAE3C"></path></g><g transform="translate(421 68)"><path d="M0 -3L2.6 -1.5L2.6 1.5L0 3L-2.6 1.5L-2.6 -1.5Z" fill="#FBAE3C"></path></g><g transform="translate(1503 23)"><path d="M0 -1L0.9 -0.5L0.9 0.5L0 1L-0.9 0.5L-0.9 -0.5Z" fill="#FBAE3C"></path></g><g transform="translate(508 57)"><path d="M0 -1L0.9 -0.5L0.9 0.5L0 1L-0.9 0.5L-0.9 -0.5Z" fill="#FBAE3C"></path></g><g transform="translate(754 75)"><path d="M0 -4L3.5 -2L3.5 2L0 4L-3.5 2L-3.5 -2Z" fill="#FBAE3C"></path></g><g transform="translate(240 1)"><path d="M0 -6L5.2 -3L5.2 3L0 6L-5.2 3L-5.2 -3Z" fill="#FBAE3C"></path></g><g transform="translate(1708 58)"><path d="M0 -2L1.7 -1L1.7 1L0 2L-1.7 1L-1.7 -1Z" fill="#FBAE3C"></path></g><g transform="translate(212 71)"><path d="M0 -2L1.7 -1L1.7 1L0 2L-1.7 1L-1.7 -1Z" fill="#FBAE3C"></path></g><g transform="translate(1444 63)"><path d="M0 -3L2.6 -1.5L2.6 1.5L0 3L-2.6 1.5L-2.6 -1.5Z" fill="#FBAE3C"></path></g><g transform="translate(2208 10)"><path d="M0 -3L2.6 -1.5L2.6 1.5L0 3L-2.6 1.5L-2.6 -1.5Z" fill="#FBAE3C"></path></g><g transform="translate(402 63)"><path d="M0 -3L2.6 -1.5L2.6 1.5L0 3L-2.6 1.5L-2.6 -1.5Z" fill="#FBAE3C"></path></g><g transform="translate(2053 3)"><path d="M0 -6L5.2 -3L5.2 3L0 6L-5.2 3L-5.2 -3Z" fill="#FBAE3C"></path></g><g transform="translate(567 56)"><path d="M0 -1L0.9 -0.5L0.9 0.5L0 1L-0.9 0.5L-0.9 -0.5Z" fill="#FBAE3C"></path></g><g transform="translate(545 8)"><path d="M0 -3L2.6 -1.5L2.6 1.5L0 3L-2.6 1.5L-2.6 -1.5Z" fill="#FBAE3C"></path></g><g transform="translate(2282 3)"><path d="M0 -3L2.6 -1.5L2.6 1.5L0 3L-2.6 1.5L-2.6 -1.5Z" fill="#FBAE3C"></path></g><g transform="translate(82 55)"><path d="M0 -5L4.3 -2.5L4.3 2.5L0 5L-4.3 2.5L-4.3 -2.5Z" fill="#FBAE3C"></path></g><g transform="translate(1684 67)"><path d="M0 -1L0.9 -0.5L0.9 0.5L0 1L-0.9 0.5L-0.9 -0.5Z" fill="#FBAE3C"></path></g><g transform="translate(1781 72)"><path d="M0 -6L5.2 -3L5.2 3L0 6L-5.2 3L-5.2 -3Z" fill="#FBAE3C"></path></g><g transform="translate(2072 29)"><path d="M0 -4L3.5 -2L3.5 2L0 4L-3.5 2L-3.5 -2Z" fill="#FBAE3C"></path></g><g transform="translate(1257 75)"><path d="M0 -3L2.6 -1.5L2.6 1.5L0 3L-2.6 1.5L-2.6 -1.5Z" fill="#FBAE3C"></path></g><g transform="translate(1995 78)"><path d="M0 -5L4.3 -2.5L4.3 2.5L0 5L-4.3 2.5L-4.3 -2.5Z" fill="#FBAE3C"></path></g><g transform="translate(1040 27)"><path d="M0 -4L3.5 -2L3.5 2L0 4L-3.5 2L-3.5 -2Z" fill="#FBAE3C"></path></g><g transform="translate(975 13)"><path d="M0 -6L5.2 -3L5.2 3L0 6L-5.2 3L-5.2 -3Z" fill="#FBAE3C"></path></g><g transform="translate(2083 75)"><path d="M0 -2L1.7 -1L1.7 1L0 2L-1.7 1L-1.7 -1Z" fill="#FBAE3C"></path></g><g transform="translate(282 41)"><path d="M0 -3L2.6 -1.5L2.6 1.5L0 3L-2.6 1.5L-2.6 -1.5Z" fill="#FBAE3C"></path></g><g transform="translate(1473 78)"><path d="M0 -1L0.9 -0.5L0.9 0.5L0 1L-0.9 0.5L-0.9 -0.5Z" fill="#FBAE3C"></path></g><g transform="translate(1639 18)"><path d="M0 -1L0.9 -0.5L0.9 0.5L0 1L-0.9 0.5L-0.9 -0.5Z" fill="#FBAE3C"></path></g><g transform="translate(430 28)"><path d="M0 -5L4.3 -2.5L4.3 2.5L0 5L-4.3 2.5L-4.3 -2.5Z" fill="#FBAE3C"></path></g><g transform="translate(1588 24)"><path d="M0 -4L3.5 -2L3.5 2L0 4L-3.5 2L-3.5 -2Z" fill="#FBAE3C"></path></g><g transform="translate(1655 64)"><path d="M0 -1L0.9 -0.5L0.9 0.5L0 1L-0.9 0.5L-0.9 -0.5Z" fill="#FBAE3C"></path></g><g transform="translate(129 58)"><path d="M0 -5L4.3 -2.5L4.3 2.5L0 5L-4.3 2.5L-4.3 -2.5Z" fill="#FBAE3C"></path></g><g transform="translate(173 32)"><path d="M0 -1L0.9 -0.5L0.9 0.5L0 1L-0.9 0.5L-0.9 -0.5Z" fill="#FBAE3C"></path></g><g transform="translate(1025 18)"><path d="M0 -6L5.2 -3L5.2 3L0 6L-5.2 3L-5.2 -3Z" fill="#FBAE3C"></path></g><g transform="translate(1007 73)"><path d="M0 -5L4.3 -2.5L4.3 2.5L0 5L-4.3 2.5L-4.3 -2.5Z" fill="#FBAE3C"></path></g><g transform="translate(595 46)"><path d="M0 -1L0.9 -0.5L0.9 0.5L0 1L-0.9 0.5L-0.9 -0.5Z" fill="#FBAE3C"></path></g><g transform="translate(528 6)"><path d="M0 -6L5.2 -3L5.2 3L0 6L-5.2 3L-5.2 -3Z" fill="#FBAE3C"></path></g><g transform="translate(1408 42)"><path d="M0 -4L3.5 -2L3.5 2L0 4L-3.5 2L-3.5 -2Z" fill="#FBAE3C"></path></g><g transform="translate(609 74)"><path d="M0 -5L4.3 -2.5L4.3 2.5L0 5L-4.3 2.5L-4.3 -2.5Z" fill="#FBAE3C"></path></g><g transform="translate(976 70)"><path d="M0 -5L4.3 -2.5L4.3 2.5L0 5L-4.3 2.5L-4.3 -2.5Z" fill="#FBAE3C"></path></g><g transform="translate(1724 34)"><path d="M0 -2L1.7 -1L1.7 1L0 2L-1.7 1L-1.7 -1Z" fill="#FBAE3C"></path></g><g transform="translate(943 67)"><path d="M0 -2L1.7 -1L1.7 1L0 2L-1.7 1L-1.7 -1Z" fill="#FBAE3C"></path></g><g transform="translate(1332 16)"><path d="M0 -3L2.6 -1.5L2.6 1.5L0 3L-2.6 1.5L-2.6 -1.5Z" fill="#FBAE3C"></path></g><g transform="translate(1329 73)"><path d="M0 -3L2.6 -1.5L2.6 1.5L0 3L-2.6 1.5L-2.6 -1.5Z" fill="#FBAE3C"></path></g><g transform="translate(43 64)"><path d="M0 -1L0.9 -0.5L0.9 0.5L0 1L-0.9 0.5L-0.9 -0.5Z" fill="#FBAE3C"></path></g><g transform="translate(2252 77)"><path d="M0 -3L2.6 -1.5L2.6 1.5L0 3L-2.6 1.5L-2.6 -1.5Z" fill="#FBAE3C"></path></g><g transform="translate(2275 37)"><path d="M0 -3L2.6 -1.5L2.6 1.5L0 3L-2.6 1.5L-2.6 -1.5Z" fill="#FBAE3C"></path></g><g transform="translate(1981 66)"><path d="M0 -1L0.9 -0.5L0.9 0.5L0 1L-0.9 0.5L-0.9 -0.5Z" fill="#FBAE3C"></path></g><g transform="translate(1950 77)"><path d="M0 -3L2.6 -1.5L2.6 1.5L0 3L-2.6 1.5L-2.6 -1.5Z" fill="#FBAE3C"></path></g><g transform="translate(1629 62)"><path d="M0 -1L0.9 -0.5L0.9 0.5L0 1L-0.9 0.5L-0.9 -0.5Z" fill="#FBAE3C"></path></g><g transform="translate(2270 14)"><path d="M0 -3L2.6 -1.5L2.6 1.5L0 3L-2.6 1.5L-2.6 -1.5Z" fill="#FBAE3C"></path></g><g transform="translate(1903 73)"><path d="M0 -5L4.3 -2.5L4.3 2.5L0 5L-4.3 2.5L-4.3 -2.5Z" fill="#FBAE3C"></path></g><g transform="translate(1940 62)"><path d="M0 -4L3.5 -2L3.5 2L0 4L-3.5 2L-3.5 -2Z" fill="#FBAE3C"></path></g><g transform="translate(2235 14)"><path d="M0 -3L2.6 -1.5L2.6 1.5L0 3L-2.6 1.5L-2.6 -1.5Z" fill="#FBAE3C"></path></g><g transform="translate(1262 45)"><path d="M0 -4L3.5 -2L3.5 2L0 4L-3.5 2L-3.5 -2Z" fill="#FBAE3C"></path></g><g transform="translate(1592 77)"><path d="M0 -3L2.6 -1.5L2.6 1.5L0 3L-2.6 1.5L-2.6 -1.5Z" fill="#FBAE3C"></path></g><g transform="translate(1163 52)"><path d="M0 -3L2.6 -1.5L2.6 1.5L0 3L-2.6 1.5L-2.6 -1.5Z" fill="#FBAE3C"></path></g><g transform="translate(1624 6)"><path d="M0 -4L3.5 -2L3.5 2L0 4L-3.5 2L-3.5 -2Z" fill="#FBAE3C"></path></g><g transform="translate(686 52)"><path d="M0 -6L5.2 -3L5.2 3L0 6L-5.2 3L-5.2 -3Z" fill="#FBAE3C"></path></g><g transform="translate(2049 46)"><path d="M0 -3L2.6 -1.5L2.6 1.5L0 3L-2.6 1.5L-2.6 -1.5Z" fill="#FBAE3C"></path></g><g transform="translate(1894 24)"><path d="M0 -3L2.6 -1.5L2.6 1.5L0 3L-2.6 1.5L-2.6 -1.5Z" fill="#FBAE3C"></path></g><g transform="translate(1883 12)"><path d="M0 -2L1.7 -1L1.7 1L0 2L-1.7 1L-1.7 -1Z" fill="#FBAE3C"></path></g><g transform="translate(327 7)"><path d="M0 -5L4.3 -2.5L4.3 2.5L0 5L-4.3 2.5L-4.3 -2.5Z" fill="#FBAE3C"></path></g><g transform="translate(144 16)"><path d="M0 -6L5.2 -3L5.2 3L0 6L-5.2 3L-5.2 -3Z" fill="#FBAE3C"></path></g><g transform="translate(1485 11)"><path d="M0 -3L2.6 -1.5L2.6 1.5L0 3L-2.6 1.5L-2.6 -1.5Z" fill="#FBAE3C"></path></g><g transform="translate(1797 13)"><path d="M0 -1L0.9 -0.5L0.9 0.5L0 1L-0.9 0.5L-0.9 -0.5Z" fill="#FBAE3C"></path></g><g transform="translate(699 76)"><path d="M0 -4L3.5 -2L3.5 2L0 4L-3.5 2L-3.5 -2Z" fill="#FBAE3C"></path></g><g transform="translate(887 70)"><path d="M0 -6L5.2 -3L5.2 3L0 6L-5.2 3L-5.2 -3Z" fill="#FBAE3C"></path></g><g transform="translate(533 68)"><path d="M0 -5L4.3 -2.5L4.3 2.5L0 5L-4.3 2.5L-4.3 -2.5Z" fill="#FBAE3C"></path></g><g transform="translate(1276 12)"><path d="M0 -4L3.5 -2L3.5 2L0 4L-3.5 2L-3.5 -2Z" fill="#FBAE3C"></path></g><g transform="translate(897 56)"><path d="M0 -6L5.2 -3L5.2 3L0 6L-5.2 3L-5.2 -3Z" fill="#FBAE3C"></path></g><g transform="translate(1888 66)"><path d="M0 -2L1.7 -1L1.7 1L0 2L-1.7 1L-1.7 -1Z" fill="#FBAE3C"></path></g><g transform="translate(1769 28)"><path d="M0 -3L2.6 -1.5L2.6 1.5L0 3L-2.6 1.5L-2.6 -1.5Z" fill="#FBAE3C"></path></g><g transform="translate(2214 50)"><path d="M0 -4L3.5 -2L3.5 2L0 4L-3.5 2L-3.5 -2Z" fill="#FBAE3C"></path></g><g transform="translate(913 10)"><path d="M0 -6L5.2 -3L5.2 3L0 6L-5.2 3L-5.2 -3Z" fill="#FBAE3C"></path></g><g transform="translate(1973 36)"><path d="M0 -3L2.6 -1.5L2.6 1.5L0 3L-2.6 1.5L-2.6 -1.5Z" fill="#FBAE3C"></path></g><g transform="translate(1128 11)"><path d="M0 -4L3.5 -2L3.5 2L0 4L-3.5 2L-3.5 -2Z" fill="#FBAE3C"></path></g><g transform="translate(649 66)"><path d="M0 -2L1.7 -1L1.7 1L0 2L-1.7 1L-1.7 -1Z" fill="#FBAE3C"></path></g><g transform="translate(1247 41)"><path d="M0 -1L0.9 -0.5L0.9 0.5L0 1L-0.9 0.5L-0.9 -0.5Z" fill="#FBAE3C"></path></g><g transform="translate(701 27)"><path d="M0 -5L4.3 -2.5L4.3 2.5L0 5L-4.3 2.5L-4.3 -2.5Z" fill="#FBAE3C"></path></g><g transform="translate(1392 39)"><path d="M0 -6L5.2 -3L5.2 3L0 6L-5.2 3L-5.2 -3Z" fill="#FBAE3C"></path></g><g transform="translate(74 35)"><path d="M0 -2L1.7 -1L1.7 1L0 2L-1.7 1L-1.7 -1Z" fill="#FBAE3C"></path></g><g transform="translate(449 47)"><path d="M0 -1L0.9 -0.5L0.9 0.5L0 1L-0.9 0.5L-0.9 -0.5Z" fill="#FBAE3C"></path></g><g transform="translate(2300 18)"><path d="M0 -3L2.6 -1.5L2.6 1.5L0 3L-2.6 1.5L-2.6 -1.5Z" fill="#FBAE3C"></path></g><g transform="translate(1521 54)"><path d="M0 -2L1.7 -1L1.7 1L0 2L-1.7 1L-1.7 -1Z" fill="#FBAE3C"></path></g><g transform="translate(1855 23)"><path d="M0 -1L0.9 -0.5L0.9 0.5L0 1L-0.9 0.5L-0.9 -0.5Z" fill="#FBAE3C"></path></g><g transform="translate(451 11)"><path d="M0 -2L1.7 -1L1.7 1L0 2L-1.7 1L-1.7 -1Z" fill="#FBAE3C"></path></g><g transform="translate(239 63)"><path d="M0 -3L2.6 -1.5L2.6 1.5L0 3L-2.6 1.5L-2.6 -1.5Z" fill="#FBAE3C"></path></g><g transform="translate(1027 52)"><path d="M0 -1L0.9 -0.5L0.9 0.5L0 1L-0.9 0.5L-0.9 -0.5Z" fill="#FBAE3C"></path></g><g transform="translate(1133 30)"><path d="M0 -3L2.6 -1.5L2.6 1.5L0 3L-2.6 1.5L-2.6 -1.5Z" fill="#FBAE3C"></path></g><g transform="translate(2008 47)"><path d="M0 -4L3.5 -2L3.5 2L0 4L-3.5 2L-3.5 -2Z" fill="#FBAE3C"></path></g><g transform="translate(245 47)"><path d="M0 -3L2.6 -1.5L2.6 1.5L0 3L-2.6 1.5L-2.6 -1.5Z" fill="#FBAE3C"></path></g><g transform="translate(1865 58)"><path d="M0 -6L5.2 -3L5.2 3L0 6L-5.2 3L-5.2 -3Z" fill="#FBAE3C"></path></g><g transform="translate(1612 50)"><path d="M0 -2L1.7 -1L1.7 1L0 2L-1.7 1L-1.7 -1Z" fill="#FBAE3C"></path></g><g transform="translate(223 51)"><path d="M0 -1L0.9 -0.5L0.9 0.5L0 1L-0.9 0.5L-0.9 -0.5Z" fill="#FBAE3C"></path></g><g transform="translate(111 35)"><path d="M0 -5L4.3 -2.5L4.3 2.5L0 5L-4.3 2.5L-4.3 -2.5Z" fill="#FBAE3C"></path></g><g transform="translate(2233 77)"><path d="M0 -4L3.5 -2L3.5 2L0 4L-3.5 2L-3.5 -2Z" fill="#FBAE3C"></path></g><g transform="translate(1840 17)"><path d="M0 -3L2.6 -1.5L2.6 1.5L0 3L-2.6 1.5L-2.6 -1.5Z" fill="#FBAE3C"></path></g><g transform="translate(774 27)"><path d="M0 -1L0.9 -0.5L0.9 0.5L0 1L-0.9 0.5L-0.9 -0.5Z" fill="#FBAE3C"></path></g><g transform="translate(1473 58)"><path d="M0 -6L5.2 -3L5.2 3L0 6L-5.2 3L-5.2 -3Z" fill="#FBAE3C"></path></g><g transform="translate(1081 35)"><path d="M0 -6L5.2 -3L5.2 3L0 6L-5.2 3L-5.2 -3Z" fill="#FBAE3C"></path></g><g transform="translate(750 24)"><path d="M0 -1L0.9 -0.5L0.9 0.5L0 1L-0.9 0.5L-0.9 -0.5Z" fill="#FBAE3C"></path></g><g transform="translate(584 16)"><path d="M0 -4L3.5 -2L3.5 2L0 4L-3.5 2L-3.5 -2Z" fill="#FBAE3C"></path></g><g transform="translate(313 35)"><path d="M0 -1L0.9 -0.5L0.9 0.5L0 1L-0.9 0.5L-0.9 -0.5Z" fill="#FBAE3C"></path></g><g transform="translate(1302 13)"><path d="M0 -2L1.7 -1L1.7 1L0 2L-1.7 1L-1.7 -1Z" fill="#FBAE3C"></path></g><g transform="translate(2096 10)"><path d="M0 -4L3.5 -2L3.5 2L0 4L-3.5 2L-3.5 -2Z" fill="#FBAE3C"></path></g><g transform="translate(307 57)"><path d="M0 -1L0.9 -0.5L0.9 0.5L0 1L-0.9 0.5L-0.9 -0.5Z" fill="#FBAE3C"></path></g><g transform="translate(1447 16)"><path d="M0 -6L5.2 -3L5.2 3L0 6L-5.2 3L-5.2 -3Z" fill="#FBAE3C"></path></g><g transform="translate(46 48)"><path d="M0 -6L5.2 -3L5.2 3L0 6L-5.2 3L-5.2 -3Z" fill="#FBAE3C"></path></g><g transform="translate(82 17)"><path d="M0 -3L2.6 -1.5L2.6 1.5L0 3L-2.6 1.5L-2.6 -1.5Z" fill="#FBAE3C"></path></g><g transform="translate(2201 42)"><path d="M0 -5L4.3 -2.5L4.3 2.5L0 5L-4.3 2.5L-4.3 -2.5Z" fill="#FBAE3C"></path></g><g transform="translate(1398 11)"><path d="M0 -4L3.5 -2L3.5 2L0 4L-3.5 2L-3.5 -2Z" fill="#FBAE3C"></path></g><g transform="translate(1202 6)"><path d="M0 -5L4.3 -2.5L4.3 2.5L0 5L-4.3 2.5L-4.3 -2.5Z" fill="#FBAE3C"></path></g><g transform="translate(341 64)"><path d="M0 -3L2.6 -1.5L2.6 1.5L0 3L-2.6 1.5L-2.6 -1.5Z" fill="#FBAE3C"></path></g><g transform="translate(2211 77)"><path d="M0 -5L4.3 -2.5L4.3 2.5L0 5L-4.3 2.5L-4.3 -2.5Z" fill="#FBAE3C"></path></g><g transform="translate(839 74)"><path d="M0 -2L1.7 -1L1.7 1L0 2L-1.7 1L-1.7 -1Z" fill="#FBAE3C"></path></g><g transform="translate(1536 51)"><path d="M0 -6L5.2 -3L5.2 3L0 6L-5.2 3L-5.2 -3Z" fill="#FBAE3C"></path></g><g transform="translate(1621 27)"><path d="M0 -4L3.5 -2L3.5 2L0 4L-3.5 2L-3.5 -2Z" fill="#FBAE3C"></path></g><g transform="translate(955 2)"><path d="M0 -3L2.6 -1.5L2.6 1.5L0 3L-2.6 1.5L-2.6 -1.5Z" fill="#FBAE3C"></path></g><g transform="translate(503 72)"><path d="M0 -5L4.3 -2.5L4.3 2.5L0 5L-4.3 2.5L-4.3 -2.5Z" fill="#FBAE3C"></path></g><g transform="translate(274 14)"><path d="M0 -6L5.2 -3L5.2 3L0 6L-5.2 3L-5.2 -3Z" fill="#FBAE3C"></path></g><g transform="translate(2120 10)"><path d="M0 -1L0.9 -0.5L0.9 0.5L0 1L-0.9 0.5L-0.9 -0.5Z" fill="#FBAE3C"></path></g><g transform="translate(861 24)"><path d="M0 -2L1.7 -1L1.7 1L0 2L-1.7 1L-1.7 -1Z" fill="#FBAE3C"></path></g><g transform="translate(259 78)"><path d="M0 -2L1.7 -1L1.7 1L0 2L-1.7 1L-1.7 -1Z" fill="#FBAE3C"></path></g><g transform="translate(1069 46)"><path d="M0 -2L1.7 -1L1.7 1L0 2L-1.7 1L-1.7 -1Z" fill="#FBAE3C"></path></g><g transform="translate(1370 15)"><path d="M0 -4L3.5 -2L3.5 2L0 4L-3.5 2L-3.5 -2Z" fill="#FBAE3C"></path></g><g transform="translate(2298 39)"><path d="M0 -1L0.9 -0.5L0.9 0.5L0 1L-0.9 0.5L-0.9 -0.5Z" fill="#FBAE3C"></path></g><g transform="translate(1377 60)"><path d="M0 -1L0.9 -0.5L0.9 0.5L0 1L-0.9 0.5L-0.9 -0.5Z" fill="#FBAE3C"></path></g><g transform="translate(1605 34)"><path d="M0 -5L4.3 -2.5L4.3 2.5L0 5L-4.3 2.5L-4.3 -2.5Z" fill="#FBAE3C"></path></g><g transform="translate(2105 41)"><path d="M0 -4L3.5 -2L3.5 2L0 4L-3.5 2L-3.5 -2Z" fill="#FBAE3C"></path></g><g transform="translate(1828 7)"><path d="M0 -6L5.2 -3L5.2 3L0 6L-5.2 3L-5.2 -3Z" fill="#FBAE3C"></path></g><g transform="translate(2019 31)"><path d="M0 -5L4.3 -2.5L4.3 2.5L0 5L-4.3 2.5L-4.3 -2.5Z" fill="#FBAE3C"></path></g><g transform="translate(2172 8)"><path d="M0 -4L3.5 -2L3.5 2L0 4L-3.5 2L-3.5 -2Z" fill="#FBAE3C"></path></g><g transform="translate(34 38)"><path d="M0 -4L3.5 -2L3.5 2L0 4L-3.5 2L-3.5 -2Z" fill="#FBAE3C"></path></g><g transform="translate(1571 33)"><path d="M0 -1L0.9 -0.5L0.9 0.5L0 1L-0.9 0.5L-0.9 -0.5Z" fill="#FBAE3C"></path></g><g transform="translate(774 73)"><path d="M0 -4L3.5 -2L3.5 2L0 4L-3.5 2L-3.5 -2Z" fill="#FBAE3C"></path></g><g transform="translate(1111 27)"><path d="M0 -3L2.6 -1.5L2.6 1.5L0 3L-2.6 1.5L-2.6 -1.5Z" fill="#FBAE3C"></path></g><g transform="translate(559 17)"><path d="M0 -4L3.5 -2L3.5 2L0 4L-3.5 2L-3.5 -2Z" fill="#FBAE3C"></path></g><g transform="translate(523 52)"><path d="M0 -3L2.6 -1.5L2.6 1.5L0 3L-2.6 1.5L-2.6 -1.5Z" fill="#FBAE3C"></path></g><g transform="translate(1525 36)"><path d="M0 -6L5.2 -3L5.2 3L0 6L-5.2 3L-5.2 -3Z" fill="#FBAE3C"></path></g><g transform="translate(1690 13)"><path d="M0 -6L5.2 -3L5.2 3L0 6L-5.2 3L-5.2 -3Z" fill="#FBAE3C"></path></g><g transform="translate(1275 29)"><path d="M0 -4L3.5 -2L3.5 2L0 4L-3.5 2L-3.5 -2Z" fill="#FBAE3C"></path></g><g transform="translate(1279 63)"><path d="M0 -4L3.5 -2L3.5 2L0 4L-3.5 2L-3.5 -2Z" fill="#FBAE3C"></path></g><g transform="translate(211 33)"><path d="M0 -5L4.3 -2.5L4.3 2.5L0 5L-4.3 2.5L-4.3 -2.5Z" fill="#FBAE3C"></path></g><g transform="translate(434 79)"><path d="M0 -6L5.2 -3L5.2 3L0 6L-5.2 3L-5.2 -3Z" fill="#FBAE3C"></path></g><g transform="translate(1333 50)"><path d="M0 -5L4.3 -2.5L4.3 2.5L0 5L-4.3 2.5L-4.3 -2.5Z" fill="#FBAE3C"></path></g><g transform="translate(259 36)"><path d="M0 -6L5.2 -3L5.2 3L0 6L-5.2 3L-5.2 -3Z" fill="#FBAE3C"></path></g><g transform="translate(388 3)"><path d="M0 -5L4.3 -2.5L4.3 2.5L0 5L-4.3 2.5L-4.3 -2.5Z" fill="#FBAE3C"></path></g><g transform="translate(1816 50)"><path d="M0 -6L5.2 -3L5.2 3L0 6L-5.2 3L-5.2 -3Z" fill="#FBAE3C"></path></g><g transform="translate(94 42)"><path d="M0 -3L2.6 -1.5L2.6 1.5L0 3L-2.6 1.5L-2.6 -1.5Z" fill="#FBAE3C"></path></g><g transform="translate(1924 26)"><path d="M0 -5L4.3 -2.5L4.3 2.5L0 5L-4.3 2.5L-4.3 -2.5Z" fill="#FBAE3C"></path></g><g transform="translate(1937 11)"><path d="M0 -2L1.7 -1L1.7 1L0 2L-1.7 1L-1.7 -1Z" fill="#FBAE3C"></path></g><g transform="translate(466 44)"><path d="M0 -3L2.6 -1.5L2.6 1.5L0 3L-2.6 1.5L-2.6 -1.5Z" fill="#FBAE3C"></path></g><g transform="translate(929 24)"><path d="M0 -5L4.3 -2.5L4.3 2.5L0 5L-4.3 2.5L-4.3 -2.5Z" fill="#FBAE3C"></path></g><g transform="translate(1229 3)"><path d="M0 -1L0.9 -0.5L0.9 0.5L0 1L-0.9 0.5L-0.9 -0.5Z" fill="#FBAE3C"></path></g><g transform="translate(756 49)"><path d="M0 -5L4.3 -2.5L4.3 2.5L0 5L-4.3 2.5L-4.3 -2.5Z" fill="#FBAE3C"></path></g><g transform="translate(340 28)"><path d="M0 -6L5.2 -3L5.2 3L0 6L-5.2 3L-5.2 -3Z" fill="#FBAE3C"></path></g><g transform="translate(1504 7)"><path d="M0 -1L0.9 -0.5L0.9 0.5L0 1L-0.9 0.5L-0.9 -0.5Z" fill="#FBAE3C"></path></g><g transform="translate(2184 20)"><path d="M0 -3L2.6 -1.5L2.6 1.5L0 3L-2.6 1.5L-2.6 -1.5Z" fill="#FBAE3C"></path></g><g transform="translate(1310 63)"><path d="M0 -1L0.9 -0.5L0.9 0.5L0 1L-0.9 0.5L-0.9 -0.5Z" fill="#FBAE3C"></path></g><g transform="translate(1435 39)"><path d="M0 -3L2.6 -1.5L2.6 1.5L0 3L-2.6 1.5L-2.6 -1.5Z" fill="#FBAE3C"></path></g><g transform="translate(835 41)"><path d="M0 -3L2.6 -1.5L2.6 1.5L0 3L-2.6 1.5L-2.6 -1.5Z" fill="#FBAE3C"></path></g><g transform="translate(2301 74)"><path d="M0 -5L4.3 -2.5L4.3 2.5L0 5L-4.3 2.5L-4.3 -2.5Z" fill="#FBAE3C"></path></g><g transform="translate(1349 78)"><path d="M0 -6L5.2 -3L5.2 3L0 6L-5.2 3L-5.2 -3Z" fill="#FBAE3C"></path></g><g transform="translate(2281 74)"><path d="M0 -5L4.3 -2.5L4.3 2.5L0 5L-4.3 2.5L-4.3 -2.5Z" fill="#FBAE3C"></path></g><g transform="translate(575 43)"><path d="M0 -2L1.7 -1L1.7 1L0 2L-1.7 1L-1.7 -1Z" fill="#FBAE3C"></path></g><g transform="translate(1582 64)"><path d="M0 -6L5.2 -3L5.2 3L0 6L-5.2 3L-5.2 -3Z" fill="#FBAE3C"></path></g><g transform="translate(66 70)"><path d="M0 -5L4.3 -2.5L4.3 2.5L0 5L-4.3 2.5L-4.3 -2.5Z" fill="#FBAE3C"></path></g><g transform="translate(1395 55)"><path d="M0 -3L2.6 -1.5L2.6 1.5L0 3L-2.6 1.5L-2.6 -1.5Z" fill="#FBAE3C"></path></g><g transform="translate(201 18)"><path d="M0 -3L2.6 -1.5L2.6 1.5L0 3L-2.6 1.5L-2.6 -1.5Z" fill="#FBAE3C"></path></g><g transform="translate(733 69)"><path d="M0 -1L0.9 -0.5L0.9 0.5L0 1L-0.9 0.5L-0.9 -0.5Z" fill="#FBAE3C"></path></g><g transform="translate(2256 58)"><path d="M0 -6L5.2 -3L5.2 3L0 6L-5.2 3L-5.2 -3Z" fill="#FBAE3C"></path></g><g transform="translate(353 46)"><path d="M0 -3L2.6 -1.5L2.6 1.5L0 3L-2.6 1.5L-2.6 -1.5Z" fill="#FBAE3C"></path></g><g transform="translate(885 27)"><path d="M0 -5L4.3 -2.5L4.3 2.5L0 5L-4.3 2.5L-4.3 -2.5Z" fill="#FBAE3C"></path></g><g transform="translate(91 73)"><path d="M0 -1L0.9 -0.5L0.9 0.5L0 1L-0.9 0.5L-0.9 -0.5Z" fill="#FBAE3C"></path></g><g transform="translate(674 39)"><path d="M0 -2L1.7 -1L1.7 1L0 2L-1.7 1L-1.7 -1Z" fill="#FBAE3C"></path></g><g transform="translate(424 10)"><path d="M0 -4L3.5 -2L3.5 2L0 4L-3.5 2L-3.5 -2Z" fill="#FBAE3C"></path></g><g transform="translate(986 1)"><path d="M0 -1L0.9 -0.5L0.9 0.5L0 1L-0.9 0.5L-0.9 -0.5Z" fill="#FBAE3C"></path></g><g transform="translate(1 4)"><path d="M0 -4L3.5 -2L3.5 2L0 4L-3.5 2L-3.5 -2Z" fill="#FBAE3C"></path></g><g transform="translate(2100 68)"><path d="M0 -6L5.2 -3L5.2 3L0 6L-5.2 3L-5.2 -3Z" fill="#FBAE3C"></path></g><g transform="translate(360 64)"><path d="M0 -2L1.7 -1L1.7 1L0 2L-1.7 1L-1.7 -1Z" fill="#FBAE3C"></path></g><g transform="translate(954 20)"><path d="M0 -4L3.5 -2L3.5 2L0 4L-3.5 2L-3.5 -2Z" fill="#FBAE3C"></path></g><g transform="translate(1158 6)"><path d="M0 -6L5.2 -3L5.2 3L0 6L-5.2 3L-5.2 -3Z" fill="#FBAE3C"></path></g><g transform="translate(982 49)"><path d="M0 -6L5.2 -3L5.2 3L0 6L-5.2 3L-5.2 -3Z" fill="#FBAE3C"></path></g><g transform="translate(358 32)"><path d="M0 -1L0.9 -0.5L0.9 0.5L0 1L-0.9 0.5L-0.9 -0.5Z" fill="#FBAE3C"></path></g><g transform="translate(116 2)"><path d="M0 -5L4.3 -2.5L4.3 2.5L0 5L-4.3 2.5L-4.3 -2.5Z" fill="#FBAE3C"></path></g><g transform="translate(2011 78)"><path d="M0 -2L1.7 -1L1.7 1L0 2L-1.7 1L-1.7 -1Z" fill="#FBAE3C"></path></g><g transform="translate(1877 76)"><path d="M0 -1L0.9 -0.5L0.9 0.5L0 1L-0.9 0.5L-0.9 -0.5Z" fill="#FBAE3C"></path></g><g transform="translate(1654 34)"><path d="M0 -1L0.9 -0.5L0.9 0.5L0 1L-0.9 0.5L-0.9 -0.5Z" fill="#FBAE3C"></path></g><g transform="translate(18 4)"><path d="M0 -3L2.6 -1.5L2.6 1.5L0 3L-2.6 1.5L-2.6 -1.5Z" fill="#FBAE3C"></path></g><g transform="translate(736 12)"><path d="M0 -3L2.6 -1.5L2.6 1.5L0 3L-2.6 1.5L-2.6 -1.5Z" fill="#FBAE3C"></path></g><g transform="translate(1217 47)"><path d="M0 -2L1.7 -1L1.7 1L0 2L-1.7 1L-1.7 -1Z" fill="#FBAE3C"></path></g><g transform="translate(122 20)"><path d="M0 -6L5.2 -3L5.2 3L0 6L-5.2 3L-5.2 -3Z" fill="#FBAE3C"></path></g><g transform="translate(157 3)"><path d="M0 -5L4.3 -2.5L4.3 2.5L0 5L-4.3 2.5L-4.3 -2.5Z" fill="#FBAE3C"></path></g><g transform="translate(835 58)"><path d="M0 -2L1.7 -1L1.7 1L0 2L-1.7 1L-1.7 -1Z" fill="#FBAE3C"></path></g><g transform="translate(2040 61)"><path d="M0 -2L1.7 -1L1.7 1L0 2L-1.7 1L-1.7 -1Z" fill="#FBAE3C"></path></g><g transform="translate(792 28)"><path d="M0 -1L0.9 -0.5L0.9 0.5L0 1L-0.9 0.5L-0.9 -0.5Z" fill="#FBAE3C"></path></g><g transform="translate(1235 57)"><path d="M0 -5L4.3 -2.5L4.3 2.5L0 5L-4.3 2.5L-4.3 -2.5Z" fill="#FBAE3C"></path></g><g transform="translate(147 42)"><path d="M0 -2L1.7 -1L1.7 1L0 2L-1.7 1L-1.7 -1Z" fill="#FBAE3C"></path></g><g transform="translate(2144 75)"><path d="M0 -6L5.2 -3L5.2 3L0 6L-5.2 3L-5.2 -3Z" fill="#FBAE3C"></path></g><g transform="translate(118 69)"><path d="M0 -6L5.2 -3L5.2 3L0 6L-5.2 3L-5.2 -3Z" fill="#FBAE3C"></path></g><g transform="translate(1669 49)"><path d="M0 -3L2.6 -1.5L2.6 1.5L0 3L-2.6 1.5L-2.6 -1.5Z" fill="#FBAE3C"></path></g><g transform="translate(913 79)"><path d="M0 -5L4.3 -2.5L4.3 2.5L0 5L-4.3 2.5L-4.3 -2.5Z" fill="#FBAE3C"></path></g><g transform="translate(1716 20)"><path d="M0 -6L5.2 -3L5.2 3L0 6L-5.2 3L-5.2 -3Z" fill="#FBAE3C"></path></g><g transform="translate(1869 30)"><path d="M0 -2L1.7 -1L1.7 1L0 2L-1.7 1L-1.7 -1Z" fill="#FBAE3C"></path></g><g transform="translate(1126 75)"><path d="M0 -6L5.2 -3L5.2 3L0 6L-5.2 3L-5.2 -3Z" fill="#FBAE3C"></path></g><g transform="translate(407 7)"><path d="M0 -2L1.7 -1L1.7 1L0 2L-1.7 1L-1.7 -1Z" fill="#FBAE3C"></path></g><g transform="translate(2274 53)"><path d="M0 -3L2.6 -1.5L2.6 1.5L0 3L-2.6 1.5L-2.6 -1.5Z" fill="#FBAE3C"></path></g><g transform="translate(2038 77)"><path d="M0 -6L5.2 -3L5.2 3L0 6L-5.2 3L-5.2 -3Z" fill="#FBAE3C"></path></g><g transform="translate(1415 10)"><path d="M0 -3L2.6 -1.5L2.6 1.5L0 3L-2.6 1.5L-2.6 -1.5Z" fill="#FBAE3C"></path></g><g transform="translate(633 74)"><path d="M0 -5L4.3 -2.5L4.3 2.5L0 5L-4.3 2.5L-4.3 -2.5Z" fill="#FBAE3C"></path></g><g transform="translate(448 66)"><path d="M0 -6L5.2 -3L5.2 3L0 6L-5.2 3L-5.2 -3Z" fill="#FBAE3C"></path></g><g transform="translate(1185 68)"><path d="M0 -5L4.3 -2.5L4.3 2.5L0 5L-4.3 2.5L-4.3 -2.5Z" fill="#FBAE3C"></path></g><g transform="translate(451 31)"><path d="M0 -3L2.6 -1.5L2.6 1.5L0 3L-2.6 1.5L-2.6 -1.5Z" fill="#FBAE3C"></path></g><g transform="translate(380 66)"><path d="M0 -3L2.6 -1.5L2.6 1.5L0 3L-2.6 1.5L-2.6 -1.5Z" fill="#FBAE3C"></path></g><g transform="translate(1994 23)"><path d="M0 -2L1.7 -1L1.7 1L0 2L-1.7 1L-1.7 -1Z" fill="#FBAE3C"></path></g><g transform="translate(1023 70)"><path d="M0 -5L4.3 -2.5L4.3 2.5L0 5L-4.3 2.5L-4.3 -2.5Z" fill="#FBAE3C"></path></g><g transform="translate(1995 39)"><path d="M0 -3L2.6 -1.5L2.6 1.5L0 3L-2.6 1.5L-2.6 -1.5Z" fill="#FBAE3C"></path></g><g transform="translate(109 55)"><path d="M0 -6L5.2 -3L5.2 3L0 6L-5.2 3L-5.2 -3Z" fill="#FBAE3C"></path></g><g transform="translate(856 45)"><path d="M0 -5L4.3 -2.5L4.3 2.5L0 5L-4.3 2.5L-4.3 -2.5Z" fill="#FBAE3C"></path></g><g transform="translate(2213 24)"><path d="M0 -2L1.7 -1L1.7 1L0 2L-1.7 1L-1.7 -1Z" fill="#FBAE3C"></path></g><g transform="translate(1780 12)"><path d="M0 -2L1.7 -1L1.7 1L0 2L-1.7 1L-1.7 -1Z" fill="#FBAE3C"></path></g><g transform="translate(1877 46)"><path d="M0 -6L5.2 -3L5.2 3L0 6L-5.2 3L-5.2 -3Z" fill="#FBAE3C"></path></g><g transform="translate(1427 54)"><path d="M0 -6L5.2 -3L5.2 3L0 6L-5.2 3L-5.2 -3Z" fill="#FBAE3C"></path></g><g transform="translate(1232 75)"><path d="M0 -1L0.9 -0.5L0.9 0.5L0 1L-0.9 0.5L-0.9 -0.5Z" fill="#FBAE3C"></path></g><g transform="translate(1965 71)"><path d="M0 -3L2.6 -1.5L2.6 1.5L0 3L-2.6 1.5L-2.6 -1.5Z" fill="#FBAE3C"></path></g><g transform="translate(1141 47)"><path d="M0 -5L4.3 -2.5L4.3 2.5L0 5L-4.3 2.5L-4.3 -2.5Z" fill="#FBAE3C"></path></g><g transform="translate(780 8)"><path d="M0 -1L0.9 -0.5L0.9 0.5L0 1L-0.9 0.5L-0.9 -0.5Z" fill="#FBAE3C"></path></g><g transform="translate(1927 72)"><path d="M0 -6L5.2 -3L5.2 3L0 6L-5.2 3L-5.2 -3Z" fill="#FBAE3C"></path></g><g transform="translate(1587 3)"><path d="M0 -6L5.2 -3L5.2 3L0 6L-5.2 3L-5.2 -3Z" fill="#FBAE3C"></path></g><g transform="translate(1569 74)"><path d="M0 -6L5.2 -3L5.2 3L0 6L-5.2 3L-5.2 -3Z" fill="#FBAE3C"></path></g><g transform="translate(1170 77)"><path d="M0 -6L5.2 -3L5.2 3L0 6L-5.2 3L-5.2 -3Z" fill="#FBAE3C"></path></g><g transform="translate(1008 56)"><path d="M0 -5L4.3 -2.5L4.3 2.5L0 5L-4.3 2.5L-4.3 -2.5Z" fill="#FBAE3C"></path></g><g transform="translate(1095 4)"><path d="M0 -2L1.7 -1L1.7 1L0 2L-1.7 1L-1.7 -1Z" fill="#FBAE3C"></path></g><g transform="translate(1741 51)"><path d="M0 -1L0.9 -0.5L0.9 0.5L0 1L-0.9 0.5L-0.9 -0.5Z" fill="#FBAE3C"></path></g><g transform="translate(1320 32)"><path d="M0 -3L2.6 -1.5L2.6 1.5L0 3L-2.6 1.5L-2.6 -1.5Z" fill="#FBAE3C"></path></g><g transform="translate(1570 15)"><path d="M0 -5L4.3 -2.5L4.3 2.5L0 5L-4.3 2.5L-4.3 -2.5Z" fill="#FBAE3C"></path></g><g transform="translate(1547 66)"><path d="M0 -6L5.2 -3L5.2 3L0 6L-5.2 3L-5.2 -3Z" fill="#FBAE3C"></path></g><g transform="translate(64 48)"><path d="M0 -2L1.7 -1L1.7 1L0 2L-1.7 1L-1.7 -1Z" fill="#FBAE3C"></path></g><g transform="translate(1365 78)"><path d="M0 -4L3.5 -2L3.5 2L0 4L-3.5 2L-3.5 -2Z" fill="#FBAE3C"></path></g><g transform="translate(1313 2)"><path d="M0 -4L3.5 -2L3.5 2L0 4L-3.5 2L-3.5 -2Z" fill="#FBAE3C"></path></g><g transform="translate(1038 3)"><path d="M0 -3L2.6 -1.5L2.6 1.5L0 3L-2.6 1.5L-2.6 -1.5Z" fill="#FBAE3C"></path></g><g transform="translate(621 44)"><path d="M0 -2L1.7 -1L1.7 1L0 2L-1.7 1L-1.7 -1Z" fill="#FBAE3C"></path></g><g transform="translate(941 9)"><path d="M0 -3L2.6 -1.5L2.6 1.5L0 3L-2.6 1.5L-2.6 -1.5Z" fill="#FBAE3C"></path></g><g transform="translate(2020 58)"><path d="M0 -1L0.9 -0.5L0.9 0.5L0 1L-0.9 0.5L-0.9 -0.5Z" fill="#FBAE3C"></path></g><g transform="translate(322 66)"><path d="M0 -4L3.5 -2L3.5 2L0 4L-3.5 2L-3.5 -2Z" fill="#FBAE3C"></path></g><g transform="translate(194 37)"><path d="M0 -3L2.6 -1.5L2.6 1.5L0 3L-2.6 1.5L-2.6 -1.5Z" fill="#FBAE3C"></path></g><g transform="translate(1205 35)"><path d="M0 -2L1.7 -1L1.7 1L0 2L-1.7 1L-1.7 -1Z" fill="#FBAE3C"></path></g><g transform="translate(496 12)"><path d="M0 -5L4.3 -2.5L4.3 2.5L0 5L-4.3 2.5L-4.3 -2.5Z" fill="#FBAE3C"></path></g><g transform="translate(2005 3)"><path d="M0 -1L0.9 -0.5L0.9 0.5L0 1L-0.9 0.5L-0.9 -0.5Z" fill="#FBAE3C"></path></g><g transform="translate(1489 71)"><path d="M0 -5L4.3 -2.5L4.3 2.5L0 5L-4.3 2.5L-4.3 -2.5Z" fill="#FBAE3C"></path></g><g transform="translate(283 70)"><path d="M0 -2L1.7 -1L1.7 1L0 2L-1.7 1L-1.7 -1Z" fill="#FBAE3C"></path></g><g transform="translate(1944 45)"><path d="M0 -6L5.2 -3L5.2 3L0 6L-5.2 3L-5.2 -3Z" fill="#FBAE3C"></path></g><g transform="translate(147 61)"><path d="M0 -6L5.2 -3L5.2 3L0 6L-5.2 3L-5.2 -3Z" fill="#FBAE3C"></path></g><g transform="translate(2172 69)"><path d="M0 -1L0.9 -0.5L0.9 0.5L0 1L-0.9 0.5L-0.9 -0.5Z" fill="#FBAE3C"></path></g><g transform="translate(898 11)"><path d="M0 -4L3.5 -2L3.5 2L0 4L-3.5 2L-3.5 -2Z" fill="#FBAE3C"></path></g><g transform="translate(808 75)"><path d="M0 -2L1.7 -1L1.7 1L0 2L-1.7 1L-1.7 -1Z" fill="#FBAE3C"></path></g><g transform="translate(368 11)"><path d="M0 -4L3.5 -2L3.5 2L0 4L-3.5 2L-3.5 -2Z" fill="#FBAE3C"></path></g><g transform="translate(273 56)"><path d="M0 -5L4.3 -2.5L4.3 2.5L0 5L-4.3 2.5L-4.3 -2.5Z" fill="#FBAE3C"></path></g><g transform="translate(25 76)"><path d="M0 -3L2.6 -1.5L2.6 1.5L0 3L-2.6 1.5L-2.6 -1.5Z" fill="#FBAE3C"></path></g><g transform="translate(131 35)"><path d="M0 -5L4.3 -2.5L4.3 2.5L0 5L-4.3 2.5L-4.3 -2.5Z" fill="#FBAE3C"></path></g><g transform="translate(857 4)"><path d="M0 -4L3.5 -2L3.5 2L0 4L-3.5 2L-3.5 -2Z" fill="#FBAE3C"></path></g><g transform="translate(400 26)"><path d="M0 -4L3.5 -2L3.5 2L0 4L-3.5 2L-3.5 -2Z" fill="#FBAE3C"></path></g><g transform="translate(797 44)"><path d="M0 -4L3.5 -2L3.5 2L0 4L-3.5 2L-3.5 -2Z" fill="#FBAE3C"></path></g><g transform="translate(1192 52)"><path d="M0 -3L2.6 -1.5L2.6 1.5L0 3L-2.6 1.5L-2.6 -1.5Z" fill="#FBAE3C"></path></g><g transform="translate(1438 77)"><path d="M0 -4L3.5 -2L3.5 2L0 4L-3.5 2L-3.5 -2Z" fill="#FBAE3C"></path></g><g transform="translate(1709 3)"><path d="M0 -5L4.3 -2.5L4.3 2.5L0 5L-4.3 2.5L-4.3 -2.5Z" fill="#FBAE3C"></path></g><g transform="translate(931 41)"><path d="M0 -1L0.9 -0.5L0.9 0.5L0 1L-0.9 0.5L-0.9 -0.5Z" fill="#FBAE3C"></path></g><g transform="translate(1481 27)"><path d="M0 -3L2.6 -1.5L2.6 1.5L0 3L-2.6 1.5L-2.6 -1.5Z" fill="#FBAE3C"></path></g><g transform="translate(1294 28)"><path d="M0 -1L0.9 -0.5L0.9 0.5L0 1L-0.9 0.5L-0.9 -0.5Z" fill="#FBAE3C"></path></g><g transform="translate(959 45)"><path d="M0 -5L4.3 -2.5L4.3 2.5L0 5L-4.3 2.5L-4.3 -2.5Z" fill="#FBAE3C"></path></g><g transform="translate(843 27)"><path d="M0 -6L5.2 -3L5.2 3L0 6L-5.2 3L-5.2 -3Z" fill="#FBAE3C"></path></g><g transform="translate(1857 41)"><path d="M0 -5L4.3 -2.5L4.3 2.5L0 5L-4.3 2.5L-4.3 -2.5Z" fill="#FBAE3C"></path></g><g transform="translate(1407 65)"><path d="M0 -1L0.9 -0.5L0.9 0.5L0 1L-0.9 0.5L-0.9 -0.5Z" fill="#FBAE3C"></path></g><g transform="translate(511 41)"><path d="M0 -3L2.6 -1.5L2.6 1.5L0 3L-2.6 1.5L-2.6 -1.5Z" fill="#FBAE3C"></path></g><g transform="translate(2036 4)"><path d="M0 -5L4.3 -2.5L4.3 2.5L0 5L-4.3 2.5L-4.3 -2.5Z" fill="#FBAE3C"></path></g><g transform="translate(2285 25)"><path d="M0 -1L0.9 -0.5L0.9 0.5L0 1L-0.9 0.5L-0.9 -0.5Z" fill="#FBAE3C"></path></g><g transform="translate(463 77)"><path d="M0 -6L5.2 -3L5.2 3L0 6L-5.2 3L-5.2 -3Z" fill="#FBAE3C"></path></g><g transform="translate(1997 63)"><path d="M0 -6L5.2 -3L5.2 3L0 6L-5.2 3L-5.2 -3Z" fill="#FBAE3C"></path></g><g transform="translate(2192 4)"><path d="M0 -1L0.9 -0.5L0.9 0.5L0 1L-0.9 0.5L-0.9 -0.5Z" fill="#FBAE3C"></path></g><g transform="translate(2074 9)"><path d="M0 -2L1.7 -1L1.7 1L0 2L-1.7 1L-1.7 -1Z" fill="#FBAE3C"></path></g><g transform="translate(1766 53)"><path d="M0 -4L3.5 -2L3.5 2L0 4L-3.5 2L-3.5 -2Z" fill="#FBAE3C"></path></g><g transform="translate(408 43)"><path d="M0 -4L3.5 -2L3.5 2L0 4L-3.5 2L-3.5 -2Z" fill="#FBAE3C"></path></g><g transform="translate(402 79)"><path d="M0 -2L1.7 -1L1.7 1L0 2L-1.7 1L-1.7 -1Z" fill="#FBAE3C"></path></g><g transform="translate(826 28)"><path d="M0 -2L1.7 -1L1.7 1L0 2L-1.7 1L-1.7 -1Z" fill="#FBAE3C"></path></g><g transform="translate(1056 30)"><path d="M0 -6L5.2 -3L5.2 3L0 6L-5.2 3L-5.2 -3Z" fill="#FBAE3C"></path></g><g transform="translate(1601 62)"><path d="M0 -1L0.9 -0.5L0.9 0.5L0 1L-0.9 0.5L-0.9 -0.5Z" fill="#FBAE3C"></path></g><g transform="translate(552 51)"><path d="M0 -1L0.9 -0.5L0.9 0.5L0 1L-0.9 0.5L-0.9 -0.5Z" fill="#FBAE3C"></path></g><g transform="translate(571 4)"><path d="M0 -5L4.3 -2.5L4.3 2.5L0 5L-4.3 2.5L-4.3 -2.5Z" fill="#FBAE3C"></path></g><g transform="translate(1240 18)"><path d="M0 -3L2.6 -1.5L2.6 1.5L0 3L-2.6 1.5L-2.6 -1.5Z" fill="#FBAE3C"></path></g><g transform="translate(962 77)"><path d="M0 -4L3.5 -2L3.5 2L0 4L-3.5 2L-3.5 -2Z" fill="#FBAE3C"></path></g><g transform="translate(631 27)"><path d="M0 -4L3.5 -2L3.5 2L0 4L-3.5 2L-3.5 -2Z" fill="#FBAE3C"></path></g><g transform="translate(7 66)"><path d="M0 -1L0.9 -0.5L0.9 0.5L0 1L-0.9 0.5L-0.9 -0.5Z" fill="#FBAE3C"></path></g><g transform="translate(1618 75)"><path d="M0 -1L0.9 -0.5L0.9 0.5L0 1L-0.9 0.5L-0.9 -0.5Z" fill="#FBAE3C"></path></g><g transform="translate(1457 77)"><path d="M0 -5L4.3 -2.5L4.3 2.5L0 5L-4.3 2.5L-4.3 -2.5Z" fill="#FBAE3C"></path></g><g transform="translate(1274 78)"><path d="M0 -3L2.6 -1.5L2.6 1.5L0 3L-2.6 1.5L-2.6 -1.5Z" fill="#FBAE3C"></path></g><g transform="translate(1209 20)"><path d="M0 -3L2.6 -1.5L2.6 1.5L0 3L-2.6 1.5L-2.6 -1.5Z" fill="#FBAE3C"></path></g><g transform="translate(1913 45)"><path d="M0 -6L5.2 -3L5.2 3L0 6L-5.2 3L-5.2 -3Z" fill="#FBAE3C"></path></g><g transform="translate(2136 62)"><path d="M0 -5L4.3 -2.5L4.3 2.5L0 5L-4.3 2.5L-4.3 -2.5Z" fill="#FBAE3C"></path></g><g transform="translate(185 6)"><path d="M0 -2L1.7 -1L1.7 1L0 2L-1.7 1L-1.7 -1Z" fill="#FBAE3C"></path></g><g transform="translate(729 29)"><path d="M0 -1L0.9 -0.5L0.9 0.5L0 1L-0.9 0.5L-0.9 -0.5Z" fill="#FBAE3C"></path></g><g transform="translate(2106 22)"><path d="M0 -2L1.7 -1L1.7 1L0 2L-1.7 1L-1.7 -1Z" fill="#FBAE3C"></path></g><g transform="translate(1751 22)"><path d="M0 -5L4.3 -2.5L4.3 2.5L0 5L-4.3 2.5L-4.3 -2.5Z" fill="#FBAE3C"></path></g><g transform="translate(882 6)"><path d="M0 -1L0.9 -0.5L0.9 0.5L0 1L-0.9 0.5L-0.9 -0.5Z" fill="#FBAE3C"></path></g><g transform="translate(226 78)"><path d="M0 -1L0.9 -0.5L0.9 0.5L0 1L-0.9 0.5L-0.9 -0.5Z" fill="#FBAE3C"></path></g><g transform="translate(155 27)"><path d="M0 -1L0.9 -0.5L0.9 0.5L0 1L-0.9 0.5L-0.9 -0.5Z" fill="#FBAE3C"></path></g><g transform="translate(1255 59)"><path d="M0 -6L5.2 -3L5.2 3L0 6L-5.2 3L-5.2 -3Z" fill="#FBAE3C"></path></g><g transform="translate(2164 22)"><path d="M0 -1L0.9 -0.5L0.9 0.5L0 1L-0.9 0.5L-0.9 -0.5Z" fill="#FBAE3C"></path></g><g transform="translate(880 55)"><path d="M0 -4L3.5 -2L3.5 2L0 4L-3.5 2L-3.5 -2Z" fill="#FBAE3C"></path></g><g transform="translate(1793 56)"><path d="M0 -2L1.7 -1L1.7 1L0 2L-1.7 1L-1.7 -1Z" fill="#FBAE3C"></path></g><g transform="translate(559 73)"><path d="M0 -3L2.6 -1.5L2.6 1.5L0 3L-2.6 1.5L-2.6 -1.5Z" fill="#FBAE3C"></path></g><g transform="translate(665 63)"><path d="M0 -4L3.5 -2L3.5 2L0 4L-3.5 2L-3.5 -2Z" fill="#FBAE3C"></path></g><g transform="translate(2030 45)"><path d="M0 -3L2.6 -1.5L2.6 1.5L0 3L-2.6 1.5L-2.6 -1.5Z" fill="#FBAE3C"></path></g><g transform="translate(1671 77)"><path d="M0 -6L5.2 -3L5.2 3L0 6L-5.2 3L-5.2 -3Z" fill="#FBAE3C"></path></g><g transform="translate(75 3)"><path d="M0 -3L2.6 -1.5L2.6 1.5L0 3L-2.6 1.5L-2.6 -1.5Z" fill="#FBAE3C"></path></g><g transform="translate(678 6)"><path d="M0 -1L0.9 -0.5L0.9 0.5L0 1L-0.9 0.5L-0.9 -0.5Z" fill="#FBAE3C"></path></g><g transform="translate(162 77)"><path d="M0 -4L3.5 -2L3.5 2L0 4L-3.5 2L-3.5 -2Z" fill="#FBAE3C"></path></g><g transform="translate(1047 46)"><path d="M0 -1L0.9 -0.5L0.9 0.5L0 1L-0.9 0.5L-0.9 -0.5Z" fill="#FBAE3C"></path></g><g transform="translate(2134 3)"><path d="M0 -4L3.5 -2L3.5 2L0 4L-3.5 2L-3.5 -2Z" fill="#FBAE3C"></path></g><g transform="translate(2254 13)"><path d="M0 -6L5.2 -3L5.2 3L0 6L-5.2 3L-5.2 -3Z" fill="#FBAE3C"></path></g><g transform="translate(1910 18)"><path d="M0 -4L3.5 -2L3.5 2L0 4L-3.5 2L-3.5 -2Z" fill="#FBAE3C"></path></g><g transform="translate(1796 73)"><path d="M0 -6L5.2 -3L5.2 3L0 6L-5.2 3L-5.2 -3Z" fill="#FBAE3C"></path></g><g transform="translate(284 1)"><path d="M0 -5L4.3 -2.5L4.3 2.5L0 5L-4.3 2.5L-4.3 -2.5Z" fill="#FBAE3C"></path></g><g transform="translate(1813 2)"><path d="M0 -3L2.6 -1.5L2.6 1.5L0 3L-2.6 1.5L-2.6 -1.5Z" fill="#FBAE3C"></path></g><g transform="translate(490 48)"><path d="M0 -3L2.6 -1.5L2.6 1.5L0 3L-2.6 1.5L-2.6 -1.5Z" fill="#FBAE3C"></path></g><g transform="translate(20 46)"><path d="M0 -3L2.6 -1.5L2.6 1.5L0 3L-2.6 1.5L-2.6 -1.5Z" fill="#FBAE3C"></path></g><g transform="translate(1186 2)"><path d="M0 -2L1.7 -1L1.7 1L0 2L-1.7 1L-1.7 -1Z" fill="#FBAE3C"></path></g><g transform="translate(2231 30)"><path d="M0 -2L1.7 -1L1.7 1L0 2L-1.7 1L-1.7 -1Z" fill="#FBAE3C"></path></g><g transform="translate(203 56)"><path d="M0 -1L0.9 -0.5L0.9 0.5L0 1L-0.9 0.5L-0.9 -0.5Z" fill="#FBAE3C"></path></g><g transform="translate(1540 27)"><path d="M0 -2L1.7 -1L1.7 1L0 2L-1.7 1L-1.7 -1Z" fill="#FBAE3C"></path></g><g transform="translate(2257 40)"><path d="M0 -5L4.3 -2.5L4.3 2.5L0 5L-4.3 2.5L-4.3 -2.5Z" fill="#FBAE3C"></path></g><g transform="translate(1510 79)"><path d="M0 -1L0.9 -0.5L0.9 0.5L0 1L-0.9 0.5L-0.9 -0.5Z" fill="#FBAE3C"></path></g><g transform="translate(1109 10)"><path d="M0 -6L5.2 -3L5.2 3L0 6L-5.2 3L-5.2 -3Z" fill="#FBAE3C"></path></g><g transform="translate(1294 57)"><path d="M0 -6L5.2 -3L5.2 3L0 6L-5.2 3L-5.2 -3Z" fill="#FBAE3C"></path></g><g transform="translate(140 77)"><path d="M0 -5L4.3 -2.5L4.3 2.5L0 5L-4.3 2.5L-4.3 -2.5Z" fill="#FBAE3C"></path></g><g transform="translate(1092 78)"><path d="M0 -2L1.7 -1L1.7 1L0 2L-1.7 1L-1.7 -1Z" fill="#FBAE3C"></path></g><g transform="translate(2177 53)"><path d="M0 -3L2.6 -1.5L2.6 1.5L0 3L-2.6 1.5L-2.6 -1.5Z" fill="#FBAE3C"></path></g><g transform="translate(31 16)"><path d="M0 -5L4.3 -2.5L4.3 2.5L0 5L-4.3 2.5L-4.3 -2.5Z" fill="#FBAE3C"></path></g><g transform="translate(656 48)"><path d="M0 -5L4.3 -2.5L4.3 2.5L0 5L-4.3 2.5L-4.3 -2.5Z" fill="#FBAE3C"></path></g><g transform="translate(334 79)"><path d="M0 -5L4.3 -2.5L4.3 2.5L0 5L-4.3 2.5L-4.3 -2.5Z" fill="#FBAE3C"></path></g><g transform="translate(1361 59)"><path d="M0 -6L5.2 -3L5.2 3L0 6L-5.2 3L-5.2 -3Z" fill="#FBAE3C"></path></g><g transform="translate(50 4)"><path d="M0 -2L1.7 -1L1.7 1L0 2L-1.7 1L-1.7 -1Z" fill="#FBAE3C"></path></g><g transform="translate(532 20)"><path d="M0 -4L3.5 -2L3.5 2L0 4L-3.5 2L-3.5 -2Z" fill="#FBAE3C"></path></g><g transform="translate(1895 1)"><path d="M0 -2L1.7 -1L1.7 1L0 2L-1.7 1L-1.7 -1Z" fill="#FBAE3C"></path></g><g transform="translate(873 37)"><path d="M0 -1L0.9 -0.5L0.9 0.5L0 1L-0.9 0.5L-0.9 -0.5Z" fill="#FBAE3C"></path></g><g transform="translate(1764 75)"><path d="M0 -2L1.7 -1L1.7 1L0 2L-1.7 1L-1.7 -1Z" fill="#FBAE3C"></path></g><g transform="translate(1375 41)"><path d="M0 -5L4.3 -2.5L4.3 2.5L0 5L-4.3 2.5L-4.3 -2.5Z" fill="#FBAE3C"></path></g><g transform="translate(587 32)"><path d="M0 -3L2.6 -1.5L2.6 1.5L0 3L-2.6 1.5L-2.6 -1.5Z" fill="#FBAE3C"></path></g><g transform="translate(1172 27)"><path d="M0 -4L3.5 -2L3.5 2L0 4L-3.5 2L-3.5 -2Z" fill="#FBAE3C"></path></g><g transform="translate(1739 33)"><path d="M0 -2L1.7 -1L1.7 1L0 2L-1.7 1L-1.7 -1Z" fill="#FBAE3C"></path></g><g transform="translate(1382 4)"><path d="M0 -2L1.7 -1L1.7 1L0 2L-1.7 1L-1.7 -1Z" fill="#FBAE3C"></path></g><g transform="translate(520 78)"><path d="M0 -1L0.9 -0.5L0.9 0.5L0 1L-0.9 0.5L-0.9 -0.5Z" fill="#FBAE3C"></path></g><g transform="translate(1127 59)"><path d="M0 -1L0.9 -0.5L0.9 0.5L0 1L-0.9 0.5L-0.9 -0.5Z" fill="#FBAE3C"></path></g><g transform="translate(1676 5)"><path d="M0 -5L4.3 -2.5L4.3 2.5L0 5L-4.3 2.5L-4.3 -2.5Z" fill="#FBAE3C"></path></g><g transform="translate(51 77)"><path d="M0 -3L2.6 -1.5L2.6 1.5L0 3L-2.6 1.5L-2.6 -1.5Z" fill="#FBAE3C"></path></g><g transform="translate(1188 22)"><path d="M0 -5L4.3 -2.5L4.3 2.5L0 5L-4.3 2.5L-4.3 -2.5Z" fill="#FBAE3C"></path></g><g transform="translate(1508 40)"><path d="M0 -5L4.3 -2.5L4.3 2.5L0 5L-4.3 2.5L-4.3 -2.5Z" fill="#FBAE3C"></path></g><g transform="translate(602 3)"><path d="M0 -5L4.3 -2.5L4.3 2.5L0 5L-4.3 2.5L-4.3 -2.5Z" fill="#FBAE3C"></path></g><g transform="translate(1456 3)"><path d="M0 -5L4.3 -2.5L4.3 2.5L0 5L-4.3 2.5L-4.3 -2.5Z" fill="#FBAE3C"></path></g><g transform="translate(1644 78)"><path d="M0 -6L5.2 -3L5.2 3L0 6L-5.2 3L-5.2 -3Z" fill="#FBAE3C"></path></g><g transform="translate(1432 23)"><path d="M0 -1L0.9 -0.5L0.9 0.5L0 1L-0.9 0.5L-0.9 -0.5Z" fill="#FBAE3C"></path></g><g transform="translate(1901 56)"><path d="M0 -2L1.7 -1L1.7 1L0 2L-1.7 1L-1.7 -1Z" fill="#FBAE3C"></path></g><g transform="translate(1646 48)"><path d="M0 -3L2.6 -1.5L2.6 1.5L0 3L-2.6 1.5L-2.6 -1.5Z" fill="#FBAE3C"></path></g><g transform="translate(193 78)"><path d="M0 -5L4.3 -2.5L4.3 2.5L0 5L-4.3 2.5L-4.3 -2.5Z" fill="#FBAE3C"></path></g><g transform="translate(2302 2)"><path d="M0 -1L0.9 -0.5L0.9 0.5L0 1L-0.9 0.5L-0.9 -0.5Z" fill="#FBAE3C"></path></g><g transform="translate(816 3)"><path d="M0 -5L4.3 -2.5L4.3 2.5L0 5L-4.3 2.5L-4.3 -2.5Z" fill="#FBAE3C"></path></g><g transform="translate(468 28)"><path d="M0 -5L4.3 -2.5L4.3 2.5L0 5L-4.3 2.5L-4.3 -2.5Z" fill="#FBAE3C"></path></g><g transform="translate(297 33)"><path d="M0 -3L2.6 -1.5L2.6 1.5L0 3L-2.6 1.5L-2.6 -1.5Z" fill="#FBAE3C"></path></g><g transform="translate(990 79)"><path d="M0 -2L1.7 -1L1.7 1L0 2L-1.7 1L-1.7 -1Z" fill="#FBAE3C"></path></g><g transform="translate(856 79)"><path d="M0 -6L5.2 -3L5.2 3L0 6L-5.2 3L-5.2 -3Z" fill="#FBAE3C"></path></g><g transform="translate(1725 5)"><path d="M0 -2L1.7 -1L1.7 1L0 2L-1.7 1L-1.7 -1Z" fill="#FBAE3C"></path></g><g transform="translate(1691 49)"><path d="M0 -4L3.5 -2L3.5 2L0 4L-3.5 2L-3.5 -2Z" fill="#FBAE3C"></path></g><g transform="translate(824 76)"><path d="M0 -6L5.2 -3L5.2 3L0 6L-5.2 3L-5.2 -3Z" fill="#FBAE3C"></path></g><g transform="translate(2060 17)"><path d="M0 -3L2.6 -1.5L2.6 1.5L0 3L-2.6 1.5L-2.6 -1.5Z" fill="#FBAE3C"></path></g><g transform="translate(636 55)"><path d="M0 -5L4.3 -2.5L4.3 2.5L0 5L-4.3 2.5L-4.3 -2.5Z" fill="#FBAE3C"></path></g><g transform="translate(791 68)"><path d="M0 -5L4.3 -2.5L4.3 2.5L0 5L-4.3 2.5L-4.3 -2.5Z" fill="#FBAE3C"></path></g><g transform="translate(133 5)"><path d="M0 -5L4.3 -2.5L4.3 2.5L0 5L-4.3 2.5L-4.3 -2.5Z" fill="#FBAE3C"></path></g><g transform="translate(1016 3)"><path d="M0 -2L1.7 -1L1.7 1L0 2L-1.7 1L-1.7 -1Z" fill="#FBAE3C"></path></g><g transform="translate(1358 28)"><path d="M0 -2L1.7 -1L1.7 1L0 2L-1.7 1L-1.7 -1Z" fill="#FBAE3C"></path></g><g transform="translate(1831 30)"><path d="M0 -4L3.5 -2L3.5 2L0 4L-3.5 2L-3.5 -2Z" fill="#FBAE3C"></path></g><g transform="translate(660 32)"><path d="M0 -6L5.2 -3L5.2 3L0 6L-5.2 3L-5.2 -3Z" fill="#FBAE3C"></path></g><g transform="translate(91 3)"><path d="M0 -1L0.9 -0.5L0.9 0.5L0 1L-0.9 0.5L-0.9 -0.5Z" fill="#FBAE3C"></path></g><g transform="translate(575 77)"><path d="M0 -2L1.7 -1L1.7 1L0 2L-1.7 1L-1.7 -1Z" fill="#FBAE3C"></path></g><g transform="translate(1982 50)"><path d="M0 -5L4.3 -2.5L4.3 2.5L0 5L-4.3 2.5L-4.3 -2.5Z" fill="#FBAE3C"></path></g><g transform="translate(992 30)"><path d="M0 -1L0.9 -0.5L0.9 0.5L0 1L-0.9 0.5L-0.9 -0.5Z" fill="#FBAE3C"></path></g><g transform="translate(1074 5)"><path d="M0 -1L0.9 -0.5L0.9 0.5L0 1L-0.9 0.5L-0.9 -0.5Z" fill="#FBAE3C"></path></g><g transform="translate(992 61)"><path d="M0 -2L1.7 -1L1.7 1L0 2L-1.7 1L-1.7 -1Z" fill="#FBAE3C"></path></g><g transform="translate(2225 1)"><path d="M0 -2L1.7 -1L1.7 1L0 2L-1.7 1L-1.7 -1Z" fill="#FBAE3C"></path></g><g transform="translate(1069 78)"><path d="M0 -6L5.2 -3L5.2 3L0 6L-5.2 3L-5.2 -3Z" fill="#FBAE3C"></path></g><g transform="translate(510 2)"><path d="M0 -2L1.7 -1L1.7 1L0 2L-1.7 1L-1.7 -1Z" fill="#FBAE3C"></path></g><g transform="translate(1289 3)"><path d="M0 -2L1.7 -1L1.7 1L0 2L-1.7 1L-1.7 -1Z" fill="#FBAE3C"></path></g><g transform="translate(483 78)"><path d="M0 -5L4.3 -2.5L4.3 2.5L0 5L-4.3 2.5L-4.3 -2.5Z" fill="#FBAE3C"></path></g><g transform="translate(893 42)"><path d="M0 -4L3.5 -2L3.5 2L0 4L-3.5 2L-3.5 -2Z" fill="#FBAE3C"></path></g><g transform="translate(1724 51)"><path d="M0 -2L1.7 -1L1.7 1L0 2L-1.7 1L-1.7 -1Z" fill="#FBAE3C"></path></g><g transform="translate(928 77)"><path d="M0 -2L1.7 -1L1.7 1L0 2L-1.7 1L-1.7 -1Z" fill="#FBAE3C"></path></g><g transform="translate(602 60)"><path d="M0 -1L0.9 -0.5L0.9 0.5L0 1L-0.9 0.5L-0.9 -0.5Z" fill="#FBAE3C"></path></g><g transform="translate(1457 30)"><path d="M0 -3L2.6 -1.5L2.6 1.5L0 3L-2.6 1.5L-2.6 -1.5Z" fill="#FBAE3C"></path></g><g transform="translate(2127 46)"><path d="M0 -4L3.5 -2L3.5 2L0 4L-3.5 2L-3.5 -2Z" fill="#FBAE3C"></path></g><g transform="translate(750 2)"><path d="M0 -4L3.5 -2L3.5 2L0 4L-3.5 2L-3.5 -2Z" fill="#FBAE3C"></path></g><g transform="translate(1072 23)"><path d="M0 -6L5.2 -3L5.2 3L0 6L-5.2 3L-5.2 -3Z" fill="#FBAE3C"></path></g><g transform="translate(850 63)"><path d="M0 -6L5.2 -3L5.2 3L0 6L-5.2 3L-5.2 -3Z" fill="#FBAE3C"></path></g><g transform="translate(1256 29)"><path d="M0 -2L1.7 -1L1.7 1L0 2L-1.7 1L-1.7 -1Z" fill="#FBAE3C"></path></g><g transform="translate(945 34)"><path d="M0 -6L5.2 -3L5.2 3L0 6L-5.2 3L-5.2 -3Z" fill="#FBAE3C"></path></g><g transform="translate(292 56)"><path d="M0 -3L2.6 -1.5L2.6 1.5L0 3L-2.6 1.5L-2.6 -1.5Z" fill="#FBAE3C"></path></g><g transform="translate(716 39)"><path d="M0 -4L3.5 -2L3.5 2L0 4L-3.5 2L-3.5 -2Z" fill="#FBAE3C"></path></g><g transform="translate(1219 63)"><path d="M0 -6L5.2 -3L5.2 3L0 6L-5.2 3L-5.2 -3Z" fill="#FBAE3C"></path></g><g transform="translate(659 78)"><path d="M0 -4L3.5 -2L3.5 2L0 4L-3.5 2L-3.5 -2Z" fill="#FBAE3C"></path></g><g transform="translate(1314 78)"><path d="M0 -6L5.2 -3L5.2 3L0 6L-5.2 3L-5.2 -3Z" fill="#FBAE3C"></path></g><g transform="translate(873 78)"><path d="M0 -3L2.6 -1.5L2.6 1.5L0 3L-2.6 1.5L-2.6 -1.5Z" fill="#FBAE3C"></path></g><g transform="translate(324 22)"><path d="M0 -2L1.7 -1L1.7 1L0 2L-1.7 1L-1.7 -1Z" fill="#FBAE3C"></path></g><g transform="translate(369 78)"><path d="M0 -6L5.2 -3L5.2 3L0 6L-5.2 3L-5.2 -3Z" fill="#FBAE3C"></path></g><g transform="translate(1336 1)"><path d="M0 -2L1.7 -1L1.7 1L0 2L-1.7 1L-1.7 -1Z" fill="#FBAE3C"></path></g><g transform="translate(742 40)"><path d="M0 -6L5.2 -3L5.2 3L0 6L-5.2 3L-5.2 -3Z" fill="#FBAE3C"></path></g><g transform="translate(1849 2)"><path d="M0 -1L0.9 -0.5L0.9 0.5L0 1L-0.9 0.5L-0.9 -0.5Z" fill="#FBAE3C"></path></g><g transform="translate(437 1)"><path d="M0 -4L3.5 -2L3.5 2L0 4L-3.5 2L-3.5 -2Z" fill="#FBAE3C"></path></g><g transform="translate(1143 79)"><path d="M0 -5L4.3 -2.5L4.3 2.5L0 5L-4.3 2.5L-4.3 -2.5Z" fill="#FBAE3C"></path></g><g transform="translate(2156 1)"><path d="M0 -1L0.9 -0.5L0.9 0.5L0 1L-0.9 0.5L-0.9 -0.5Z" fill="#FBAE3C"></path></g><g transform="translate(1655 1)"><path d="M0 -2L1.7 -1L1.7 1L0 2L-1.7 1L-1.7 -1Z" fill="#FBAE3C"></path></g><g transform="translate(1990 3)"><path d="M0 -4L3.5 -2L3.5 2L0 4L-3.5 2L-3.5 -2Z" fill="#FBAE3C"></path></g><g transform="translate(2225 62)"><path d="M0 -1L0.9 -0.5L0.9 0.5L0 1L-0.9 0.5L-0.9 -0.5Z" fill="#FBAE3C"></path></g><g transform="translate(500 29)"><path d="M0 -3L2.6 -1.5L2.6 1.5L0 3L-2.6 1.5L-2.6 -1.5Z" fill="#FBAE3C"></path></g><g transform="translate(2010 18)"><path d="M0 -4L3.5 -2L3.5 2L0 4L-3.5 2L-3.5 -2Z" fill="#FBAE3C"></path></g><g transform="translate(1037 78)"><path d="M0 -1L0.9 -0.5L0.9 0.5L0 1L-0.9 0.5L-0.9 -0.5Z" fill="#FBAE3C"></path></g></g></svg>