<svg id="visual" viewBox="0 0 2309 80" width="2309" height="80" xmlns="http://www.w3.org/2000/svg" xmlns:xlink="http://www.w3.org/1999/xlink" version="1.1"><path d="M0 3L100 2L201 13L301 2L402 0L502 8L602 12L703 15L803 11L904 7L1004 6L1104 7L1205 4L1305 9L1405 13L1506 15L1606 3L1707 15L1807 7L1907 11L2008 0L2108 11L2209 12L2309 12L2309 0L2209 0L2108 0L2008 0L1907 0L1807 0L1707 0L1606 0L1506 0L1405 0L1305 0L1205 0L1104 0L1004 0L904 0L803 0L703 0L602 0L502 0L402 0L301 0L201 0L100 0L0 0Z" fill="#00cc8e"></path><path d="M0 26L100 34L201 32L301 3L402 37L502 19L602 31L703 46L803 28L904 32L1004 29L1104 36L1205 23L1305 19L1405 35L1506 19L1606 34L1707 21L1807 19L1907 19L2008 27L2108 13L2209 37L2309 24L2309 10L2209 10L2108 9L2008 0L1907 9L1807 5L1707 13L1606 1L1506 13L1405 11L1305 7L1205 2L1104 5L1004 4L904 5L803 9L703 13L602 10L502 6L402 0L301 0L201 11L100 0L0 1Z" fill="#00c58d"></path><path d="M0 31L100 39L201 37L301 7L402 38L502 25L602 39L703 49L803 31L904 36L1004 30L1104 43L1205 27L1305 23L1405 38L1506 19L1606 38L1707 22L1807 25L1907 20L2008 33L2108 17L2209 37L2309 26L2309 22L2209 35L2108 11L2008 25L1907 17L1807 17L1707 19L1606 32L1506 17L1405 33L1305 17L1205 21L1104 34L1004 27L904 30L803 26L703 44L602 29L502 17L402 35L301 1L201 30L100 32L0 24Z" fill="#00bf8b"></path><path d="M0 35L100 43L201 50L301 10L402 48L502 29L602 42L703 52L803 31L904 46L1004 31L1104 46L1205 35L1305 32L1405 47L1506 33L1606 47L1707 27L1807 26L1907 27L2008 38L2108 19L2209 43L2309 31L2309 24L2209 35L2108 15L2008 31L1907 18L1807 23L1707 20L1606 36L1506 17L1405 36L1305 21L1205 25L1104 41L1004 28L904 34L803 29L703 47L602 37L502 23L402 36L301 5L201 35L100 37L0 29Z" fill="#00b889"></path><path d="M0 39L100 49L201 55L301 16L402 50L502 37L602 48L703 59L803 35L904 47L1004 39L1104 51L1205 43L1305 41L1405 49L1506 35L1606 52L1707 31L1807 31L1907 32L2008 42L2108 19L2209 46L2309 35L2309 29L2209 41L2108 17L2008 36L1907 25L1807 24L1707 25L1606 45L1506 31L1405 45L1305 30L1205 33L1104 44L1004 29L904 44L803 29L703 50L602 40L502 27L402 46L301 8L201 48L100 41L0 33Z" fill="#00b187"></path><path d="M0 46L100 57L201 58L301 20L402 58L502 40L602 52L703 64L803 43L904 54L1004 47L1104 57L1205 49L1305 43L1405 54L1506 39L1606 55L1707 42L1807 35L1907 32L2008 51L2108 29L2209 55L2309 39L2309 33L2209 44L2108 17L2008 40L1907 30L1807 29L1707 29L1606 50L1506 33L1405 47L1305 39L1205 41L1104 49L1004 37L904 45L803 33L703 57L602 46L502 35L402 48L301 14L201 53L100 47L0 37Z" fill="#00aa85"></path><path d="M0 46L100 58L201 63L301 68L402 58L502 58L602 61L703 64L803 59L904 59L1004 51L1104 59L1205 57L1305 62L1405 65L1506 63L1606 60L1707 63L1807 62L1907 51L2008 59L2108 59L2209 59L2309 51L2309 37L2209 53L2108 27L2008 49L1907 30L1807 33L1707 40L1606 53L1506 37L1405 52L1305 41L1205 47L1104 55L1004 45L904 52L803 41L703 62L602 50L502 38L402 56L301 18L201 56L100 55L0 44Z" fill="#00a483"></path><path d="M0 48L100 60L201 67L301 68L402 64L502 61L602 64L703 66L803 59L904 59L1004 55L1104 60L1205 57L1305 62L1405 65L1506 67L1606 60L1707 70L1807 62L1907 52L2008 60L2108 63L2209 61L2309 56L2309 49L2209 57L2108 57L2008 57L1907 49L1807 60L1707 61L1606 58L1506 61L1405 63L1305 60L1205 55L1104 57L1004 49L904 57L803 57L703 62L602 59L502 56L402 56L301 66L201 61L100 56L0 44Z" fill="#009d80"></path><path d="M0 68L100 70L201 77L301 74L402 71L502 72L602 66L703 71L803 64L904 63L1004 71L1104 66L1205 68L1305 65L1405 69L1506 70L1606 71L1707 75L1807 63L1907 67L2008 66L2108 65L2209 76L2309 66L2309 54L2209 59L2108 61L2008 58L1907 50L1807 60L1707 68L1606 58L1506 65L1405 63L1305 60L1205 55L1104 58L1004 53L904 57L803 57L703 64L602 62L502 59L402 62L301 66L201 65L100 58L0 46Z" fill="#00977d"></path><path d="M0 74L100 75L201 79L301 75L402 75L502 74L602 75L703 73L803 68L904 74L1004 78L1104 72L1205 75L1305 75L1405 79L1506 72L1606 71L1707 79L1807 70L1907 70L2008 74L2108 72L2209 79L2309 69L2309 64L2209 74L2108 63L2008 64L1907 65L1807 61L1707 73L1606 69L1506 68L1405 67L1305 63L1205 66L1104 64L1004 69L904 61L803 62L703 69L602 64L502 70L402 69L301 72L201 75L100 68L0 66Z" fill="#00907a"></path><path d="M0 80L100 75L201 81L301 81L402 76L502 75L602 79L703 80L803 74L904 77L1004 79L1104 79L1205 79L1305 75L1405 80L1506 75L1606 74L1707 81L1807 75L1907 77L2008 81L2108 79L2209 79L2309 75L2309 67L2209 77L2108 70L2008 72L1907 68L1807 68L1707 77L1606 69L1506 70L1405 77L1305 73L1205 73L1104 70L1004 76L904 72L803 66L703 71L602 73L502 72L402 73L301 73L201 77L100 73L0 72Z" fill="#008977"></path><path d="M0 81L100 81L201 81L301 81L402 81L502 81L602 81L703 81L803 81L904 81L1004 81L1104 81L1205 81L1305 81L1405 81L1506 81L1606 81L1707 81L1807 81L1907 81L2008 81L2108 81L2209 81L2309 81L2309 73L2209 77L2108 77L2008 79L1907 75L1807 73L1707 79L1606 72L1506 73L1405 78L1305 73L1205 77L1104 77L1004 77L904 75L803 72L703 78L602 77L502 73L402 74L301 79L201 79L100 73L0 78Z" fill="#038373"></path></svg>